<?xml version="1.0" encoding="UTF-8" standalone="no"?>
<svg
   width="363.40344"
   height="428.1286"
   version="1.1"
   id="svg189"
   sodipodi:docname="Leonardo_Phoenix_Image_is_a_digital_cartoon_illustration_featu_0.svg"
   inkscape:version="1.3 (0e150ed6c4, 2023-07-21)"
   xmlns:inkscape="http://www.inkscape.org/namespaces/inkscape"
   xmlns:sodipodi="http://sodipodi.sourceforge.net/DTD/sodipodi-0.dtd"
   xmlns:xlink="http://www.w3.org/1999/xlink"
   xmlns="http://www.w3.org/2000/svg"
   xmlns:svg="http://www.w3.org/2000/svg">
  <sodipodi:namedview
     id="namedview189"
     pagecolor="#ffffff"
     bordercolor="#000000"
     borderopacity="0.25"
     inkscape:showpageshadow="2"
     inkscape:pageopacity="0.0"
     inkscape:pagecheckerboard="0"
     inkscape:deskcolor="#d1d1d1"
     inkscape:zoom="0.578125"
     inkscape:cx="512"
     inkscape:cy="512"
     inkscape:window-width="1440"
     inkscape:window-height="830"
     inkscape:window-x="-6"
     inkscape:window-y="-6"
     inkscape:window-maximized="1"
     inkscape:current-layer="svg189" />
  <path
     id="path4"
     d="m 161.21903,12.499569 c 0.225,4.3993 2.22764,17.86397 0.43164,21.19727 -0.075,-3.9558 -0.38703,-8.11252 -1.08203,-12.00782 0.202,-1.50899 0.17316,-3.08006 0.16016,-4.60156 -0.017,-1.9477 -0.31501,-2.92766 -1.75,-4.35156 -0.972,-0.0836 -0.86904,-0.30247 -1.45704,0.24023 -1.64399,1.5181 -1.52929,4.13868 -1.65429,6.20508 -1.385,10.11549 -0.87286,20.2519 -0.88086,30.42969 -0.007,8.92609 -0.47349,17.60248 -1.39649,26.48047 -2.59599,-21.55608 -2.15821,-42.29209 2.30079,-63.57227 -3.83,0.0335 -7.48777,0.6254 -11.25977,1.25 -8.37599,3.307 -12.06066,9.74162 -15.47266,17.56641 -6.88499,15.79098 -8.13664,32.86844 -12.43164,49.35742 -4.83799,18.57698 -13.35722,36.153071 -14.94922,55.498051 -0.64466,7.97532 -0.96555,15.96285 -0.96289,23.96484 0.034,7.20799 1.86635,25.81449 0.27735,31.27148 -6.265004,-20.36398 -5.715844,-52.36564 -0.0899,-73.01562 3.075,-11.28599 7.9939,-21.961251 11.08789,-33.240231 3.568,-13.01099 4.06387,-26.55107 7.50586,-39.59766 1.615,-6.12219 3.64808,-12.37266 6.33008,-18.12695 1.449,-3.1066 3.36269,-5.9773 4.42969,-9.2461 l -0.55469,-0.53125 c -2.746,-0.0805 -5.40077,0.83535 -7.75976,2.18555 -15.02699,8.63159 -22.735114,39.95505 -31.371104,55.33203 -6.32799,11.26799 -14.88225,21.25684 -20.28125,33.048831 -5.94099,12.97599 -9.51264,26.72051 -14.43164,40.0625 2.733,-30.56697 21.41392,-61.811971 34.62891,-89.210941 5.14099,-10.66019 9.496914,-21.67035 14.753904,-32.27734 -8.280994,8.05509 -11.461144,18.25723 -17.494144,27.79492 -3.82299,6.04539 -8.02978,11.83415 -11.67578,17.99414 -17.18598,29.042971 -32.05753,62.364161 -37.14453,95.953121 -1.959,12.92599 -2.29263,25.707 -3.14062,38.70899 -0.378,5.78399 -3.4711,10.91171 -3.4961,16.8457 -0.043,10.13599 2.68269,21.22995 4.92969,31.08594 7.47599,32.79197 18.21079,64.5227 42.50977,88.88867 -4.04,-9.70199 -9.67504,-18.57099 -13.33204,-28.45898 -14.73198,-39.82396 -16.19215,-89.47287 -10.41015,-131.17383 1.304,14.01498 0.58523,28.17953 1.61523,42.22851 4.008,54.68395 16.89031,114.60442 61.197274,151.35938 1.222,1.02133 2.46327,2.01695 3.72461,2.98828 1.26133,0.972 2.54118,1.91851 3.83984,2.83984 1.29867,0.92067 2.61522,1.81622 3.94922,2.68555 1.33466,0.86867 2.6854,1.71006 4.05273,2.52539 1.368,0.81533 2.75173,1.60457 4.15039,2.36524 1.39867,0.76066 2.81224,1.4926 4.24024,2.19726 1.428,0.70467 2.86955,1.38197 4.32422,2.0293 1.45466,0.64733 2.92106,1.26418 4.40039,1.85351 1.47933,0.58934 2.96937,1.14903 4.4707,1.67969 1.50133,0.53 3.01383,1.03129 4.53516,1.50195 1.52066,0.47 3.04922,0.91032 4.58789,1.32032 1.53866,0.40933 3.08467,0.78805 4.63867,1.13672 1.55333,0.34866 3.11498,0.66645 4.68164,0.95312 1.566,0.28667 3.13623,0.54291 4.71289,0.76758 1.576,0.224 3.15624,0.41612 4.74024,0.57812 1.58399,0.162 3.17043,0.29196 4.75976,0.39063 -26.51097,-13.91399 -59.7195,-22.32925 -76.27148,-49.19922 13.43398,11.57199 26.9,21.34993 42.70898,29.41992 8.32299,4.249 16.94954,7.87982 25.26953,12.13281 -11.58199,-10.24198 -24.94236,-18.55988 -32.81836,-32.29687 -2.92899,-5.10899 -5.23031,-10.70088 -7.69531,-16.04687 -3.121,-10.46999 -7.47889,-20.38492 -9.71289,-31.12891 4.153,9.16799 7.75908,18.47935 12.45508,27.40234 3.85099,7.363 7.87636,14.85651 13.31836,21.1875 9.65499,11.23199 45.59018,38.71138 59.70117,43.10938 7.21599,2.25 14.36238,2.39636 21.85937,2.31836 -6.92299,-7.832 -9.01457,-14.3595 -9.64257,-24.64649 -0.69125,0.21931 -1.36268,0.37861 -2.01563,0.48438 -0.65295,0.10576 -1.28755,0.15825 -1.90625,0.16211 -0.6187,0.004 -1.22204,-0.0405 -1.81055,-0.12696 -0.5885,-0.0864 -1.16226,-0.21388 -1.72461,-0.3789 0.56235,0.16502 1.13611,0.2925 1.72461,0.3789 0.58851,0.0864 1.19185,0.13082 1.81055,0.12696 0.6187,-0.004 1.2533,-0.0564 1.90625,-0.16211 0.65295,-0.10577 1.32438,-0.26507 2.01563,-0.48438 0.327,-5.61499 2.4778,-10.51094 4.96679,-15.46094 -0.01,0.276 -0.0173,0.55213 -0.0312,0.82813 -0.139,2.751 -1.15362,5.58174 -1.64062,8.30273 -0.19775,1.10525 -0.35872,2.21543 -0.47461,3.32813 -0.81121,7.78893 0.51533,15.64015 5.83008,21.85351 3.23312,3.78 7.43914,6.00643 12.00586,7.26172 1.82668,0.50212 3.71167,0.8497 5.61523,1.07813 0.95178,0.11421 1.90691,0.19806 2.86328,0.25781 2.98125,0.18638 6.44129,0.0312 9.92578,-0.52539 5.80749,-0.92772 11.68407,-2.96813 15.52344,-6.39062 0.677,-0.604 0.61319,-0.55996 1.11719,-1.12696 0.78512,-0.54475 1.53384,-1.11119 2.25195,-1.69922 5.02679,-4.1162 8.53843,-9.24141 12.31055,-14.64453 7.72899,-10.33799 14.76944,-24.18067 18.64844,-36.47265 1.85799,-5.888 2.83378,-12.15324 5.17578,-17.86524 0.077,-0.186 0.15733,-0.36969 0.23633,-0.55469 -0.408,11.24599 -2.38621,21.1743 -6.28321,31.73829 -3.18499,5.72899 -6.16058,11.79472 -9.76758,17.26171 3.343,-2.35099 6.34243,-4.60572 8.85743,-7.88671 4.09899,-3.908 7.06112,-8.73896 9.82812,-13.62696 -0.10375,-0.5415 -0.14744,-1.09171 -0.14062,-1.64648 0.007,-0.55477 0.063,-1.11579 0.15625,-1.67969 0.0933,-0.5639 0.22334,-1.13034 0.3789,-1.69922 0.15556,-0.56888 0.3375,-1.13926 0.53125,-1.70898 0.3875,-1.13944 0.82716,-2.27661 1.22266,-3.39453 -0.3955,1.11792 -0.83516,2.25509 -1.22266,3.39453 -0.19375,0.56972 -0.37569,1.1401 -0.53125,1.70898 -0.15556,0.56888 -0.28565,1.13532 -0.3789,1.69922 -0.0933,0.5639 -0.14944,1.12492 -0.15625,1.67969 -0.007,0.55477 0.0369,1.10498 0.14062,1.64648 5.503,-7.21699 10.97355,-15.85663 14.06055,-24.39062 12.98898,-27.17798 13.84012,-60.92303 9.82812,-90.25 -0.98,-7.156 -1.98453,-14.62523 -4.39453,-21.44922 -2.092,-6.57999 -1.17022,-12.9843 -1.19922,-19.7793 -0.014,-3.48899 -0.45834,-7.02342 -0.90234,-10.48242 -0.872,-27.59397 -16.54244,-67.72259 -31.85742,-90.60156 -10.54099,-21.117981 -31.74796,-41.920581 -51.21094,-54.947271 -1.959,-2.72309 -6.37771,-5.3698 -9.0957,-7.52929 -12.26199,-9.73949 -23.86285,-19.98721 -38.29883,-26.4668 10.70099,9.03599 21.15662,19.29906 28.72461,31.12695 -6.577,-3.53449 -21.47952,-21.93333 -27.47852,-28.57812 -4.00499,-2.9609 -8.16527,-4.60742 -13.07226,-5.44532 -1.804,-0.0869 -3.68944,-0.35537 -5.39844,0.32813 -0.497,0.6254 -0.79595,0.72013 -0.75195,1.58203 0.115,2.2217 2.10862,3.88316 3.64062,5.28906 -0.1625,-0.7081 -0.32711,-1.23865 -0.39648,-1.76758 -0.0347,-0.26446 -0.0447,-0.52858 -0.0195,-0.81445 0.0252,-0.28586 0.0858,-0.59391 0.19531,-0.94531 0.4875,-0.17085 1.00984,-0.21174 1.54883,-0.16797 0.53898,0.0438 1.0952,0.17317 1.65039,0.3457 0.83278,0.25881 1.66358,0.61477 2.43359,0.92188 -0.78267,-0.31115 -1.58444,-0.65798 -2.43359,-0.92188 -0.55519,-0.17253 -1.11141,-0.30193 -1.65039,-0.3457 -0.53899,-0.0438 -1.06133,-0.003 -1.54883,0.16797 -0.1095,0.3514 -0.17011,0.65945 -0.19531,0.94531 -0.0252,0.28587 -0.0152,0.54999 0.0195,0.81445 0.0694,0.52893 0.23398,1.05948 0.39648,1.76758 2.46,3.6397 6.63199,8.55336 6.95899,12.97266 -0.999,-1.7036 -2.16926,-3.34056 -3.28126,-4.97266 -3.93299,-5.77149 -8.80264,-12.33453 -16.05664,-13.70703 -1.20299,0.6839 -2.14053,1.10411 -2.76953,2.41211 1.016,6.0595 7.04635,13.00377 6.27735,18.91406 l -0.66992,0.24414 -0.99219,-0.85937 c -3.902,-8.19239 -8.42168,-17.85969 -17.26367,-21.55078 -2.772,-1.3463 -5.46002,-2.26489 -8.41602,-3.11719 z m 9.47656,5.04492 c 0.77825,0.84855 1.97577,2.47652 3.38477,4.44727 -1.409,-1.97075 -2.60652,-3.59872 -3.38477,-4.44727 z m 32.89649,2.47656 c 0.865,0.357 1.46345,0.73052 2.18945,1.32032 -0.726,-0.5898 -1.32445,-0.96332 -2.18945,-1.32032 z m -45.08399,4.42969 c -0.0682,0.21056 -0.12822,0.4296 -0.18164,0.66016 -0.0534,0.23055 -0.10183,0.47167 -0.14648,0.72656 0.0446,-0.25489 0.0931,-0.49601 0.14648,-0.72656 0.0534,-0.23056 0.11348,-0.4496 0.18164,-0.66016 z m -0.45508,2.19336 c -0.0687,0.47687 -0.1315,0.95506 -0.1875,1.4336 0.056,-0.47854 0.11884,-0.95673 0.1875,-1.4336 z m -63.498044,11.2461 c -11.71599,14.04588 -24.55053,27.44206 -35.72852,41.87304 -35.73396,46.136961 -50.6214903,93.353091 -45.3125,151.707031 4.132,45.41196 24.11704,95.34931 60,124.98828 6.352,5.247 13.02195,9.57256 20.21094,13.56055 -9.16299,-11.60699 -20.33376,-21.19429 -29.09375,-33.23828 -19.89498,-27.35497 -32.12766,-62.14702 -35.47266,-95.70898 -0.552,-5.539 -1.57893,-12.03517 -0.83593,-17.53516 0.406,-2.999 1.44756,-5.845 1.72656,-8.875 0.748,-8.11999 0.15458,-16.27798 1.01758,-24.41797 1.021,-9.62099 3.1329,-19.0756 4.2539,-28.68359 2.958,-16.59999 8.1112,-31.76041 14.61719,-47.27539 6.39699,-13.83499 14.19745,-27.164471 22.52344,-39.939461 7.68499,-11.79199 16.37875,-23.55789 22.09375,-36.45507 z m 177.494144,26.59375 c 0.66555,0.50153 1.28865,0.99165 1.84765,1.47265 -0.559,-0.481 -1.1821,-0.97112 -1.84765,-1.47265 z m 8.71875,8.2832 c 1.32987,1.361 2.63757,2.73802 3.92383,4.1289 -1.28626,-1.39088 -2.59396,-2.7679 -3.92383,-4.1289 z m 15.01758,16.99804 c 2.37393,2.93056 4.69801,5.90388 6.99218,8.90821 2.29417,3.004321 4.55796,6.039911 6.81446,9.097651 0.646,1.01913 1.25199,2.06362 1.82422,3.12696 0.57222,1.06334 1.11044,2.14522 1.62109,3.24414 -0.51065,-1.09892 -1.04887,-2.1808 -1.62109,-3.24414 -0.57223,-1.06334 -1.17822,-2.10783 -1.82422,-3.12696 -2.2565,-3.05774 -4.52029,-6.09333 -6.81446,-9.097651 -2.29417,-3.00433 -4.61825,-5.97765 -6.99218,-8.90821 z m -18.51758,0.68555 c 1.07768,1.36931 2.12378,2.76293 3.11914,4.20313 -0.99536,-1.4402 -2.04146,-2.83382 -3.11914,-4.20313 z m 38.55078,30.439451 c 0.84819,2.28838 1.63358,4.60423 2.40625,6.91407 -0.77267,-2.30984 -1.55806,-4.62569 -2.40625,-6.91407 z m 15.61133,36.97657 c 0.34389,0.84481 0.6558,1.69549 0.92968,2.54492 -0.27388,-0.84943 -0.58579,-1.70011 -0.92968,-2.54492 z m 3.6875,14.17773 c 0.50767,2.18111 0.97619,4.35297 1.39062,6.53516 0.41444,2.18218 0.77622,4.37306 1.07227,6.5918 -0.29605,-2.21874 -0.65783,-4.40962 -1.07227,-6.5918 -0.41443,-2.18219 -0.88295,-4.35405 -1.39062,-6.53516 z m -8.78125,14.39844 c 0.35723,0.33872 0.78334,0.63216 1.23828,0.89453 -0.45494,-0.26237 -0.88105,-0.55581 -1.23828,-0.89453 z m 6.78515,9.20703 c 0.78739,1.27405 1.527,2.66077 2.28125,4.16602 0.582,1.68774 1.05931,3.28711 1.44336,4.82226 0.38406,1.53516 0.67534,3.00539 0.88086,4.43164 0.20553,1.42626 0.32664,2.80888 0.37305,4.16992 0.0464,1.36105 0.0171,2.70149 -0.0762,4.04102 0.0933,-1.33953 0.12258,-2.67997 0.0762,-4.04102 -0.0464,-1.36104 -0.16752,-2.74366 -0.37305,-4.16992 -0.20552,-1.42625 -0.4968,-2.89648 -0.88086,-4.43164 -0.38405,-1.53515 -0.86136,-3.13452 -1.44336,-4.82226 -0.75425,-1.50525 -1.49386,-2.89197 -2.28125,-4.16602 z M 21.119416,214.91559 c -0.0578,1.55795 -0.0897,3.07123 -0.0332,4.49023 0.10183,3.2265 0.25704,6.44827 0.46679,9.66406 0.20975,3.21579 0.47335,6.42578 0.79102,9.63086 0.31767,3.20508 0.68965,6.40524 1.11523,9.59961 0.42559,3.19437 0.904,6.38274 1.4375,9.56641 0.3695,1.99866 0.77518,3.98833 1.21485,5.96875 0.43966,1.98041 0.91399,3.9519 1.42383,5.91406 0.50983,1.96216 1.05476,3.91546 1.63476,5.85938 0.58,1.94391 1.19554,3.87902 1.84571,5.80468 0.51849,1.5295 1.17962,3.14446 1.88671,4.80469 -0.70709,-1.66023 -1.36822,-3.27519 -1.88671,-4.80469 -0.65017,-1.92566 -1.26571,-3.86077 -1.84571,-5.80468 -0.58,-1.94392 -1.12493,-3.89722 -1.63476,-5.85938 -0.50984,-1.96216 -0.98417,-3.93365 -1.42383,-5.91406 -0.43967,-1.98042 -0.84535,-3.97009 -1.21485,-5.96875 -0.5335,-3.18367 -1.01191,-6.37204 -1.4375,-9.56641 -0.42558,-3.19437 -0.79756,-6.39453 -1.11523,-9.59961 -0.31767,-3.20508 -0.58127,-6.41507 -0.79102,-9.63086 -0.20975,-3.21579 -0.36496,-6.43756 -0.46679,-9.66406 -0.0565,-1.419 -0.0246,-2.93228 0.0332,-4.49023 z M 336.762,225.49371 c -0.62883,2.85514 -1.43972,5.88683 -2.35547,9.26758 0.91575,-3.38075 1.72664,-6.41244 2.35547,-9.26758 z m 6.16797,42.65625 c 0.3063,1.81203 0.54286,3.62017 0.68164,5.42383 -0.13878,-1.80366 -0.37534,-3.6118 -0.68164,-5.42383 z m 3.55468,0.29492 c 0.20868,2.03591 0.37512,4.07292 0.47852,6.11133 -0.1034,-2.03841 -0.26984,-4.07542 -0.47852,-6.11133 z m 0.57618,12.23242 c -0.0237,1.07425 -0.10097,2.15591 -0.21485,3.24219 0.11388,-1.08628 0.1911,-2.16794 0.21485,-3.24219 z m -1.75782,12.97071 c -0.5405,3.23274 -1.15342,6.46758 -1.79687,9.70508 0.64345,-3.2375 1.25637,-6.47234 1.79687,-9.70508 z m -21.33593,17 c 0.066,1.4815 0.11873,2.94701 0.10351,4.39062 0.0152,-1.44361 -0.0375,-2.90912 -0.10351,-4.39062 z m 0.0215,6.53906 c -0.0495,0.70965 -0.1227,1.4117 -0.22851,2.10742 -0.10582,0.69572 -0.24341,1.38446 -0.41993,2.06446 -0.17651,0.67999 -0.39268,1.35118 -0.65429,2.01367 -0.26161,0.66249 -0.56859,1.31578 -0.92969,1.95898 -0.36111,0.6432 -0.775,1.27631 -1.25,1.89844 0.475,-0.62213 0.88889,-1.25524 1.25,-1.89844 0.3611,-0.6432 0.66808,-1.29649 0.92969,-1.95898 0.26161,-0.66249 0.47778,-1.33368 0.65429,-2.01367 0.17652,-0.68 0.31411,-1.36874 0.41993,-2.06446 0.10581,-0.69572 0.179,-1.39777 0.22851,-2.10742 z m 3.39844,32.25977 c -0.2545,0.88474 -0.5353,1.77261 -0.8418,2.66211 -0.3065,0.88949 -0.63737,1.78073 -0.99219,2.66796 -0.35482,0.88724 -0.73335,1.77048 -1.13281,2.64844 -0.39945,0.87797 -0.82131,1.74964 -1.26172,2.61133 -0.4404,0.86169 -0.89928,1.71433 -1.37695,2.55273 -0.47767,0.83841 -0.97312,1.6626 -1.48438,2.47071 -0.51125,0.80811 -1.03892,1.60028 -1.58007,2.37109 -0.54116,0.77081 -1.09669,1.52155 -1.66407,2.24805 0.56738,-0.7265 1.12291,-1.47724 1.66407,-2.24805 0.54115,-0.77081 1.06882,-1.56298 1.58007,-2.37109 0.51126,-0.80811 1.00671,-1.6323 1.48438,-2.47071 0.47767,-0.8384 0.93655,-1.69104 1.37695,-2.55273 0.44041,-0.86169 0.86227,-1.73336 1.26172,-2.61133 0.39946,-0.87796 0.77799,-1.7612 1.13281,-2.64844 0.35482,-0.88723 0.68569,-1.77847 0.99219,-2.66796 0.3065,-0.8895 0.5873,-1.77737 0.8418,-2.66211 z m -173.70313,6.73828 c 1.06988,1.34873 2.153,2.64869 3.3125,3.77343 1.02213,0.99175 2.08549,1.9205 3.1875,2.78907 1.10202,0.86857 2.24212,1.67628 3.41407,2.42968 1.17194,0.75341 2.37551,1.4514 3.60742,2.09766 1.23191,0.64626 2.49153,1.24194 3.77344,1.78906 1.2819,0.54713 2.58626,1.04595 3.9082,1.50196 1.32194,0.456 2.66166,0.86928 4.01367,1.24218 1.35201,0.37291 2.71578,0.70609 4.08789,1.00391 -1.37211,-0.29782 -2.73588,-0.631 -4.08789,-1.00391 -1.35201,-0.3729 -2.69173,-0.78618 -4.01367,-1.24218 -1.32194,-0.45601 -2.6263,-0.95483 -3.9082,-1.50196 -1.28191,-0.54712 -2.54153,-1.1428 -3.77344,-1.78906 -1.23191,-0.64626 -2.43548,-1.34425 -3.60742,-2.09766 -1.17195,-0.7534 -2.31205,-1.56111 -3.41407,-2.42968 -1.10201,-0.86857 -2.16537,-1.79732 -3.1875,-2.78907 -1.1595,-1.12474 -2.24262,-2.4247 -3.3125,-3.77343 z m 148.66797,0.10937 c 0.13025,0.92813 0.23314,1.87282 0.30664,2.83203 -0.0735,-0.95921 -0.17639,-1.9039 -0.30664,-2.83203 z m -67.99609,7.82617 c 0.63873,0.007 1.294,0.0637 1.96875,0.19336 -0.0145,0.5805 -0.17528,1.25263 -0.42383,1.96875 -0.24855,0.71613 -0.58619,1.47738 -0.95312,2.23438 0.36693,-0.757 0.70457,-1.51825 0.95312,-2.23438 0.24855,-0.71612 0.40933,-1.38825 0.42383,-1.96875 -0.67475,-0.12962 -1.33002,-0.18611 -1.96875,-0.19336 z m -1.875,0.10547 c -1.22598,0.14055 -2.41102,0.39083 -3.5957,0.57227 1.18468,-0.18144 2.36972,-0.43172 3.5957,-0.57227 z m 83.44922,8.10547 c -0.10017,0.34359 -0.1931,0.69639 -0.27735,1.05274 -0.0842,0.35634 -0.15984,0.71639 -0.22851,1.07226 0.0687,-0.35587 0.14426,-0.71592 0.22851,-1.07226 0.0842,-0.35635 0.17718,-0.70915 0.27735,-1.05274 z m -107.72461,7.93945 c 1.99526,1.49974 3.92516,3.1628 5.91797,4.61524 0.9964,0.72622 2.00837,1.39991 3.05273,1.97461 -1.04436,-0.5747 -2.05633,-1.24839 -3.05273,-1.97461 -1.99281,-1.45244 -3.92271,-3.1155 -5.91797,-4.61524 z"
     style="fill:#8b0000;fill-opacity:1;stroke:#000000;stroke-width:25;stroke-linecap:round;stroke-linejoin:round;stroke-dasharray:none;stroke-opacity:1" />
  <defs
     id="defs14">
    <linearGradient
       inkscape:collect="always"
       xlink:href="#gradient_2"
       id="linearGradient12"
       gradientUnits="userSpaceOnUse"
       x1="650.09705"
       y1="147.65625"
       x2="538.90295"
       y2="146.84009"
       gradientTransform="translate(338.46505,383.96654)" />
    <linearGradient
       inkscape:collect="always"
       xlink:href="#gradient_5"
       id="linearGradient13"
       gradientUnits="userSpaceOnUse"
       x1="595.08612"
       y1="182.95764"
       x2="579.76306"
       y2="206.27184"
       gradientTransform="translate(338.46505,383.96654)" />
    <linearGradient
       inkscape:collect="always"
       xlink:href="#gradient_6"
       id="linearGradient14"
       gradientUnits="userSpaceOnUse"
       x1="511.99707"
       y1="121.98549"
       x2="515.46661"
       y2="120.36089"
       gradientTransform="translate(338.46505,383.96654)" />
    <linearGradient
       inkscape:collect="always"
       xlink:href="#gradient_7"
       id="linearGradient15"
       gradientUnits="userSpaceOnUse"
       x1="578.91687"
       y1="151.01181"
       x2="590.35925"
       y2="145.37402"
       gradientTransform="translate(338.46505,383.96654)" />
    <linearGradient
       inkscape:collect="always"
       xlink:href="#gradient_8"
       id="linearGradient16"
       gradientUnits="userSpaceOnUse"
       x1="558.76709"
       y1="153.04861"
       x2="569.37164"
       y2="148.32968"
       gradientTransform="translate(338.46505,383.96654)" />
    <linearGradient
       inkscape:collect="always"
       xlink:href="#gradient_9"
       id="linearGradient17"
       gradientUnits="userSpaceOnUse"
       x1="566.23212"
       y1="153.63071"
       x2="596.65063"
       y2="116.13029"
       gradientTransform="translate(338.46505,383.96654)" />
    <linearGradient
       inkscape:collect="always"
       xlink:href="#gradient_10"
       id="linearGradient18"
       gradientUnits="userSpaceOnUse"
       x1="493.44888"
       y1="259.54437"
       x2="523.41486"
       y2="267.77271"
       gradientTransform="translate(338.46505,383.96654)" />
    <linearGradient
       inkscape:collect="always"
       xlink:href="#gradient_11"
       id="linearGradient19"
       gradientUnits="userSpaceOnUse"
       x1="595.60535"
       y1="308.11804"
       x2="600.72614"
       y2="306.26178"
       gradientTransform="translate(338.46505,383.96654)" />
    <linearGradient
       inkscape:collect="always"
       xlink:href="#gradient_12"
       id="linearGradient20"
       gradientUnits="userSpaceOnUse"
       x1="565.31055"
       y1="325.24524"
       x2="567.90887"
       y2="306.58896"
       gradientTransform="translate(338.46505,383.96654)" />
    <linearGradient
       inkscape:collect="always"
       xlink:href="#gradient_13"
       id="linearGradient21"
       gradientUnits="userSpaceOnUse"
       x1="596.73999"
       y1="354.77682"
       x2="607.44348"
       y2="379.03934"
       gradientTransform="translate(338.46505,383.96654)" />
    <linearGradient
       inkscape:collect="always"
       xlink:href="#gradient_14"
       id="linearGradient22"
       gradientUnits="userSpaceOnUse"
       x1="589.62"
       y1="400.63663"
       x2="590.63812"
       y2="378.16644"
       gradientTransform="translate(338.46505,383.96654)" />
  </defs>
  <defs
     id="defs18" />
  <defs
     id="defs46">
    <linearGradient
       id="gradient_2"
       gradientUnits="userSpaceOnUse"
       x1="650.09705"
       y1="147.65625"
       x2="538.90295"
       y2="146.84009">
      <stop
         offset="0"
         stop-color="#E3B16F"
         id="stop45" />
      <stop
         offset="1"
         stop-color="#FFCC9C"
         id="stop46" />
    </linearGradient>
  </defs>
  <defs
     id="defs92" />
  <defs
     id="defs94" />
  <defs
     id="defs130">
    <linearGradient
       id="gradient_5"
       gradientUnits="userSpaceOnUse"
       x1="595.08612"
       y1="182.95764"
       x2="579.76306"
       y2="206.27184">
      <stop
         offset="0"
         stop-color="#B8713D"
         id="stop129" />
      <stop
         offset="1"
         stop-color="#D6A363"
         id="stop130" />
    </linearGradient>
  </defs>
  <defs
     id="defs132">
    <linearGradient
       id="gradient_6"
       gradientUnits="userSpaceOnUse"
       x1="511.99707"
       y1="121.98549"
       x2="515.46661"
       y2="120.36089">
      <stop
         offset="0"
         stop-color="#F8EAD5"
         id="stop131" />
      <stop
         offset="1"
         stop-color="#FAF7F5"
         id="stop132" />
    </linearGradient>
  </defs>
  <defs
     id="defs137">
    <linearGradient
       id="gradient_7"
       gradientUnits="userSpaceOnUse"
       x1="578.91687"
       y1="151.01181"
       x2="590.35925"
       y2="145.37402">
      <stop
         offset="0"
         stop-color="#FADFC8"
         id="stop136" />
      <stop
         offset="1"
         stop-color="#F5F4F6"
         id="stop137" />
    </linearGradient>
  </defs>
  <defs
     id="defs141">
    <linearGradient
       id="gradient_8"
       gradientUnits="userSpaceOnUse"
       x1="558.76709"
       y1="153.04861"
       x2="569.37164"
       y2="148.32968">
      <stop
         offset="0"
         stop-color="#FCE4C3"
         id="stop140" />
      <stop
         offset="1"
         stop-color="#FAF5F6"
         id="stop141" />
    </linearGradient>
  </defs>
  <defs
     id="defs145">
    <linearGradient
       id="gradient_9"
       gradientUnits="userSpaceOnUse"
       x1="566.23212"
       y1="153.63071"
       x2="596.65063"
       y2="116.13029">
      <stop
         offset="0"
         stop-color="#D58E53"
         id="stop144" />
      <stop
         offset="1"
         stop-color="#F2C082"
         id="stop145" />
    </linearGradient>
  </defs>
  <defs
     id="defs151">
    <linearGradient
       id="gradient_10"
       gradientUnits="userSpaceOnUse"
       x1="493.44888"
       y1="259.54437"
       x2="523.41486"
       y2="267.77271">
      <stop
         offset="0"
         stop-color="#D38974"
         id="stop150" />
      <stop
         offset="1"
         stop-color="#E8BBA7"
         id="stop151" />
    </linearGradient>
  </defs>
  <defs
     id="defs163">
    <linearGradient
       id="gradient_11"
       gradientUnits="userSpaceOnUse"
       x1="595.60535"
       y1="308.11804"
       x2="600.72614"
       y2="306.26178">
      <stop
         offset="0"
         stop-color="#FFE6E5"
         id="stop162" />
      <stop
         offset="1"
         stop-color="#F8FCFE"
         id="stop163" />
    </linearGradient>
  </defs>
  <defs
     id="defs167">
    <linearGradient
       id="gradient_12"
       gradientUnits="userSpaceOnUse"
       x1="565.31055"
       y1="325.24524"
       x2="567.90887"
       y2="306.58896">
      <stop
         offset="0"
         stop-color="#D08E73"
         id="stop166" />
      <stop
         offset="1"
         stop-color="#F0BDAC"
         id="stop167" />
    </linearGradient>
  </defs>
  <defs
     id="defs186">
    <linearGradient
       id="gradient_13"
       gradientUnits="userSpaceOnUse"
       x1="596.73999"
       y1="354.77682"
       x2="607.44348"
       y2="379.03934">
      <stop
         offset="0"
         stop-color="#CB8F7F"
         id="stop185" />
      <stop
         offset="1"
         stop-color="#E5B897"
         id="stop186" />
    </linearGradient>
  </defs>
  <defs
     id="defs188">
    <linearGradient
       id="gradient_14"
       gradientUnits="userSpaceOnUse"
       x1="589.62"
       y1="400.63663"
       x2="590.63812"
       y2="378.16644">
      <stop
         offset="0"
         stop-color="#BF7E67"
         id="stop187" />
      <stop
         offset="1"
         stop-color="#E1A273"
         id="stop188" />
    </linearGradient>
  </defs>
  <g
     id="g22"
     transform="translate(-658.89102,-426.71536)">
    <path
       fill="#d3995c"
       d="m 856.36605,448.88074 c -1.532,-1.4059 -3.527,-3.0666 -3.642,-5.2883 -0.044,-0.8619 0.255,-0.957 0.752,-1.5824 1.709,-0.6835 3.595,-0.4163 5.399,-0.3294 l -0.144,1.0697 c 1.148,1.5022 2.389,2.7261 3.794,3.9875 -1.927,-0.6902 -4.43,-2.0671 -6.38,-1.3837 -0.438,1.4056 -0.104,2.1104 0.221,3.5266 z"
       id="path4-3" />
    <path
       fill="#d3995c"
       d="m 965.08705,811.98754 c 3.607,-5.467 6.582,-11.533 9.767,-17.262 l 1.133,1.67 c -1.2,1.808 -1.852,5.505 -2.044,7.706 -2.515,3.281 -5.513,5.535 -8.856,7.886 z"
       id="path5-1" />
    <path
       fill="#f7c3a8"
       d="m 858.87505,441.68064 c 4.907,0.8379 9.067,2.4849 13.072,5.4458 -0.903,1.228 -1.047,1.6157 -2.508,2.1788 -1.634,-0.3036 -3.126,-0.8386 -4.724,-1.247 -0.726,-0.5898 -1.325,-0.9634 -2.19,-1.3204 -1.405,-1.2614 -2.646,-2.4853 -3.794,-3.9875 z"
       id="path6-0" />
    <path
       fill="#fdd49f"
       d="m 814.80105,445.89864 c 0.125,-2.0664 0.011,-4.6882 1.655,-6.2063 0.588,-0.5427 0.485,-0.3235 1.457,-0.2399 1.435,1.4239 1.732,2.4044 1.749,4.3521 0.013,1.5215 0.043,3.0931 -0.159,4.6021 -1.854,1.4053 -2.182,2.6867 -2.517,4.9553 q -0.103,0.7153 -0.187,1.4331 -1.094,-4.4269 -1.998,-8.8964 z"
       id="path7-7" />
    <path
       fill="#fefdfe"
       d="m 828.56905,442.33364 c 8.842,3.6911 13.361,13.3581 17.263,21.5505 -3.275,-0.3593 -13.089,-16.2294 -16.202,-19.6236 -0.6,-0.6543 -0.886,-1.0176 -1.061,-1.9269 z"
       id="path10-2" />
    <path
       fill="#b37842"
       d="m 975.98705,796.39554 c 4.539,-5.812 8.298,-13.154 10.334,-20.232 l 0.556,0.902 c -0.842,4.253 -3.936,9.076 -3.106,13.408 -2.767,4.888 -5.729,9.72 -9.828,13.628 0.192,-2.201 0.844,-5.898 2.044,-7.706 z"
       id="path12-1" />
    <path
       fill="#fefdfe"
       d="m 918.09505,478.57484 c 19.463,13.0267 40.67,33.8277 51.211,54.9457 l -0.78,0.968 c -9.026,-12.231 -18.185,-24.116 -28.824,-35.004 -2.238,-2.29 -4.446,-4.723 -6.871,-6.81 -4.472,-3.848 -13.039,-8.308 -14.736,-14.0997 z"
       id="path17-4" />
    <path
       fill="#f9e9d4"
       d="m 969.30605,533.52054 c 15.315,22.879 30.98595,63.008 31.85795,90.602 -0.697,0.985 -2.02995,0.995 -3.18195,1.284 -0.845,-0.697 -0.707,-5.503 -0.79,-6.762 -0.61,-9.163 -2.469,-17.608 -4.772,-26.47 -0.741,-6.6 -4.822,-13.95 -8.724,-19.177 -1.144,-3.909 -2.858,-7.75 -4.211,-11.601 -3.179,-9.049 -5.791,-18.755 -10.959,-26.908 z"
       id="path23-3" />
    <path
       fill="#fdd49f"
       d="m 997.83305,766.08354 c -1.647,-2.142 -1.102,-4.271 -0.771,-6.842 1.671,-12.971 5.01295,-25.946 7.17495,-38.877 0.709,-4.239 1.663,-8.674 1.758,-12.971 0.362,-16.331 -4.727,-32.56 -4.162,-48.804 0.064,-1.84 0.049,-2.93 1.432,-4.205 2.41,6.824 3.416,14.294 4.396,21.45 4.012,29.327 3.161,63.071 -9.82795,90.249 z"
       id="path32-0" />
    <path
       fill="#f7c3a8"
       d="m 982.90005,737.36454 c 2.41,0.561 4.802,1.521 7.199,1.979 -0.596,12.151 -1.328,24.886 -3.778,36.82 -2.036,7.078 -5.795,14.42 -10.334,20.232 l -1.133,-1.67 c 3.897,-10.564 5.875,-20.492 6.283,-31.738 -0.079,0.185 -0.16,0.37 -0.237,0.556 -2.342,5.712 -3.318,11.977 -5.176,17.865 -3.879,12.292 -10.919,26.134 -18.648,36.472 -0.363,-0.806 -0.548,-1.504 -0.379,-2.389 0.588,-3.067 1.934,-6.264 2.788,-9.289 2.029,-7.188 2.843,-15.767 1.801,-23.192 2.155,0.566 3.69,0.808 5.832,-0.041 l 1.132,0.22 c 1.035,-2.539 1.397,-5.203 1.798,-7.893 l 1.546,-1.773 c 0.127,-0.118 0.26,-0.23 0.382,-0.354 4.639,-4.733 7.652,-12.675 7.463,-19.222 3.8,-4.977 3.725,-10.657 3.461,-16.583 z"
       id="path38-9" />
    <path
       fill="#f9e9d4"
       d="m 971.59405,773.52354 c 0.658,4.06 0.56,9.272 -1.624,12.924 l -0.775,0.084 c -0.862,-0.992 -0.827,-2.095 -0.945,-3.342 1.035,-2.539 1.397,-5.203 1.798,-7.893 z"
       id="path39-7" />
    <path
       fill="#e8b171"
       d="m 994.33605,626.53254 c 5.232,-3.889 -2.758,-24.855 -2.69,-30.916 0.013,-1.166 0.412,-2.345 0.774,-3.442 2.303,8.862 4.162,17.307 4.772,26.47 0.083,1.259 -0.055,6.065 0.79,6.762 1.152,-0.289 2.48495,-0.299 3.18195,-1.284 0.444,3.459 0.888,6.993 0.902,10.482 0.029,6.795 -0.893,13.2 1.199,19.78 -1.383,1.275 -1.368,2.365 -1.432,4.205 -0.565,16.244 4.524,32.473 4.162,48.804 -0.095,4.297 -1.049,8.732 -1.758,12.971 -2.162,12.931 -5.50395,25.906 -7.17495,38.877 -0.331,2.571 -0.876,4.7 0.771,6.842 -3.087,8.534 -8.559,17.173 -14.062,24.39 -0.83,-4.332 2.264,-9.155 3.106,-13.408 l -0.556,-0.902 c 2.45,-11.934 3.182,-24.669 3.778,-36.82 0.742,-1.764 0.78,-4.296 2.191,-5.543 1.925,-2.349 3.32,-5.242 3.494,-8.291 0.525,-1.267 1.57,-2.551 2.269,-3.769 8.13395,-14.174 3.91695,-28.593 -0.224,-43.298 -1.586,-5.632 -2.923,-11.328 -4.489,-16.965 3.663,-13.523 5.652,-21.443 0.996,-34.945 z"
       id="path43-7" />
    <path
       d="m 990.09905,739.34354 c 0.742,-1.764 0.78,-4.296 2.191,-5.543 l -0.067,0.731 c -1.323,15.209 0.765,27.7 -5.346,42.534 l -0.556,-0.902 c 2.45,-11.934 3.182,-24.669 3.778,-36.82 z"
       id="path44-0" />
    <path
       fill="url(#gradient_2)"
       d="m 870.70105,444.57764 c 14.436,6.4796 26.038,16.7281 38.3,26.4676 2.718,2.1595 7.135,4.8065 9.094,7.5296 1.697,5.7917 10.264,10.2517 14.736,14.0997 2.425,2.087 4.633,4.52 6.871,6.81 10.639,10.888 19.798,22.773 28.824,35.004 5.168,8.153 7.78,17.859 10.959,26.908 1.353,3.851 3.067,7.692 4.211,11.601 -0.176,5.49 1.522,11.344 2.308,16.795 1.223,8.476 2.177,17.07 3.247,25.568 -1.62,-0.765 -4.094,-1.597 -4.805,-3.366 -0.25,-0.623 -0.379,-1.408 -0.523,-2.051 0.674,-9.98 -4.152,-27.205 -7.068,-36.965 -4.149,-13.885 -15.702,-34.086 -24.486,-45.755 -7.547,-10.027 -16.114,-19.352 -24.576,-28.611 -4.726,-5.171 -9.987,-12.073 -16.176,-15.4255 -2.877,-1.6111 -3.432,-3.9366 -7.098,-4.1587 -1.744,-0.8569 -3.246,-3.0647 -5.093,-3.3242 -7.568,-11.8279 -18.024,-22.0905 -28.725,-31.1265 z"
       id="path46-6"
       style="fill:url(#linearGradient12)" />
    <path
       d="m 904.51905,479.02834 c 3.666,0.2221 4.221,2.5476 7.098,4.1587 6.189,3.3525 11.45,10.2545 16.176,15.4255 8.462,9.259 17.029,18.584 24.576,28.611 8.784,11.669 20.337,31.87 24.486,45.755 2.916,9.76 7.742,26.985 7.068,36.965 0.144,0.643 0.273,1.428 0.523,2.051 0.711,1.769 3.185,2.601 4.805,3.366 -1.07,-8.498 -2.024,-17.092 -3.247,-25.568 -0.786,-5.451 -2.484,-11.305 -2.308,-16.795 3.902,5.227 7.983,12.577 8.724,19.177 -0.362,1.097 -0.761,2.276 -0.774,3.442 -0.068,6.061 7.922,27.027 2.69,30.916 -3.017,-6.021 -5.812,-10.135 -12.282,-12.801 -1.458,-2.628 -2.56,-5.356 -3.685,-8.136 0.347,-3.761 -1.783,-5.023 -3.415,-8.056 l -0.391,-0.745 c -0.245,-1.621 -1.133,-3.221 -1.803,-4.718 -0.753,-4.901 -3.339,-9.842 -5.326,-14.363 -3.758,-8.551 -7.374,-17.291 -11.723,-25.558 -4.635,-8.81 -10.49,-16.717 -13.578,-26.296 -3.49,-6.245 -8.125,-11.321 -12.608,-16.833 -8.22,-10.108 -16.638,-20.013 -25.006,-29.9982 z"
       id="path47-1" />
    <path
       fill="#f7c3a8"
       d="m 970.41705,566.81554 c 3.406,7.971 6.494,16.671 7.859,25.248 l -0.597,0.782 -1.042,-0.204 c -1.378,-1.897 -5.914,-18.448 -7.488,-22.751 0.568,0.607 1.236,1.67 2.057,1.771 -0.476,-1.646 -0.665,-3.14 -0.789,-4.846 z"
       id="path48-9" />
    <path
       fill="#f9e9d4"
       d="m 904.51905,479.02834 c 3.666,0.2221 4.221,2.5476 7.098,4.1587 21.605,26.9595 46.198,50.6465 58.8,83.6285 0.124,1.706 0.313,3.2 0.789,4.846 -0.821,-0.101 -1.489,-1.164 -2.057,-1.771 -4.568,-7.773 -8.608,-17.506 -13.122,-24.615 -2.132,-3.358 -5.343,-5.938 -7.429,-9.336 -2.136,-3.478 -3.301,-7.309 -6.465,-10.08 -3.49,-6.245 -8.125,-11.321 -12.608,-16.833 -8.22,-10.108 -16.638,-20.013 -25.006,-29.9982 z"
       id="path49-1" />
    <path
       fill="#fdd49f"
       d="m 942.13305,525.85954 c 3.164,2.771 4.329,6.602 6.465,10.08 2.086,3.398 5.297,5.978 7.429,9.336 4.514,7.109 8.554,16.842 13.122,24.615 1.574,4.303 6.11,20.854 7.488,22.751 l 1.042,0.204 0.597,-0.782 c 1.171,5.642 1.757,13.549 5.647,17.88 0.144,0.643 0.273,1.428 0.523,2.051 0.711,1.769 3.185,2.601 4.805,3.366 -1.07,-8.498 -2.024,-17.092 -3.247,-25.568 -0.786,-5.451 -2.484,-11.305 -2.308,-16.795 3.902,5.227 7.983,12.577 8.724,19.177 -0.362,1.097 -0.761,2.276 -0.774,3.442 -0.068,6.061 7.922,27.027 2.69,30.916 -3.017,-6.021 -5.812,-10.135 -12.282,-12.801 -1.458,-2.628 -2.56,-5.356 -3.685,-8.136 0.347,-3.761 -1.783,-5.023 -3.415,-8.056 l -0.391,-0.745 c -0.245,-1.621 -1.133,-3.221 -1.803,-4.718 -0.753,-4.901 -3.339,-9.842 -5.326,-14.363 -3.758,-8.551 -7.374,-17.291 -11.723,-25.558 -4.635,-8.81 -10.49,-16.717 -13.578,-26.296 z"
       id="path50-0" />
    <path
       fill="#b37842"
       d="m 801.57605,772.84854 c 6.312,2.028 9.715,9.328 14.353,13.827 8.177,7.934 19.07,11.798 30.128,13.644 4.963,0.829 9.999,1.335 14.769,3.03 9.027,3.208 14.926,14.978 25.986,11.469 0.628,10.287 2.72,16.814 9.643,24.646 -7.497,0.078 -14.643,-0.068 -21.859,-2.318 -14.111,-4.398 -50.047,-31.877 -59.702,-43.109 -5.442,-6.331 -9.467,-13.826 -13.318,-21.189 z"
       id="path53-9" />
    <path
       d="m 844.48605,804.31754 c 5.142,2.182 7.824,10.26 12.526,13.676 8.839,6.423 20.46,7.503 29.07,14.53 -5.208,-1.124 -10.588,-3.436 -15.594,-5.29 -12.879,-4.77 -20.202,-10.298 -26.002,-22.916 z"
       id="path54-8" />
    <path
       fill="#b37842"
       d="m 752.65805,796.73654 c -7.189,-3.988 -13.859,-8.314 -20.211,-13.561 -35.883,-29.639 -55.867,-79.576 -59.999,-124.988 -5.309,-58.354 9.577,-105.571 45.311,-151.708 11.178,-14.431 24.013,-27.8265 35.729,-41.8724 -5.715,12.8972 -14.409,24.6634 -22.094,36.4554 -8.326,12.775 -16.125,26.104 -22.522,39.939 -6.506,15.515 -11.66,30.676 -14.618,47.276 -1.121,9.608 -3.232,19.062 -4.253,28.683 -0.863,8.14 -0.27,16.298 -1.018,24.418 -0.279,3.03 -1.321,5.877 -1.727,8.876 -0.743,5.5 0.284,11.996 0.836,17.535 3.345,33.562 15.578,68.353 35.473,95.708 8.76,12.044 19.93,21.632 29.093,33.239 z m -73.072,-168.924 c -2.118,6.958 -0.992,15.231 -0.712,22.414 0.989,25.391 3.111,50.379 15.249,73.302 0.819,1.548 1.688,3.093 2.663,4.548 -0.398,-6.355 -4.763,-13.828 -6.837,-19.946 q -3.901,-11.554 -6.118,-23.546 -3.201,-19.102 -3.812,-38.461 c -0.226,-5.676 0.962,-12.874 -0.433,-18.311 z"
       id="path67-8" />
    <path
       fill="#8b562b"
       d="m 679.82005,594.82754 c 1.931,0.718 3.387,1.963 4.983,3.221 q 0.354,7.358 0.831,14.708 c -3.121,-2.506 -2.893,-9.215 -3.828,-12.958 -0.429,-1.716 -1.245,-3.37 -1.986,-4.971 z"
       id="path68-6" />
    <path
       d="m 679.58605,627.81254 c 1.395,5.437 0.207,12.635 0.433,18.311 q 0.611,19.359 3.812,38.461 2.217,11.992 6.118,23.546 c 2.074,6.118 6.439,13.591 6.837,19.946 -0.975,-1.455 -1.844,-3 -2.663,-4.548 -12.138,-22.923 -14.26,-47.911 -15.249,-73.302 -0.28,-7.183 -1.406,-15.456 0.712,-22.414 z"
       id="path69-0" />
    <path
       fill="#d3995c"
       d="m 710.04305,528.81654 c -1.904,3.98 -4.885,7.577 -7.465,11.147 2.129,0.26 4.213,0.495 6.294,1.038 -6.506,15.515 -11.66,30.676 -14.618,47.276 -0.886,-0.274 -1.778,-0.51 -2.673,-0.751 -1.504,0.457 -1.693,0.991 -2.65,2.198 -0.078,-0.276 -0.189,-0.544 -0.235,-0.827 -0.408,-2.478 0.192,-6.099 0.297,-8.703 0.784,-19.448 7.596,-37.083 21.05,-51.378 z"
       id="path70-4" />
    <path
       fill="#e8b171"
       d="m 979.43905,753.94754 c 0.189,6.547 -2.824,14.489 -7.463,19.222 -0.122,0.124 -0.255,0.236 -0.382,0.354 l -1.546,1.773 c -0.401,2.69 -0.763,5.354 -1.798,7.893 l -1.132,-0.22 c -2.142,0.849 -3.677,0.607 -5.832,0.041 1.042,7.425 0.228,16.004 -1.801,23.192 -0.854,3.025 -2.2,6.222 -2.788,9.289 -0.169,0.885 0.016,1.583 0.379,2.389 -4.311,6.175 -8.282,11.986 -14.563,16.344 -0.504,0.567 -0.44,0.522 -1.117,1.126 -6.143,5.476 -17.498,7.414 -25.448,6.917 -7.651,-0.478 -15.311,-2.55 -20.484,-8.598 -6.074,-7.101 -6.939,-16.34 -5.357,-25.182 0.487,-2.721 1.502,-5.552 1.641,-8.303 0.014,-0.276 0.021,-0.551 0.031,-0.827 1.027,-2.218 3.42,-6.004 3.478,-8.326 -5.398,-1.037 -9.479,2.56 -14.874,-0.694 -0.161,-0.096 -0.318,-0.197 -0.477,-0.296 9.603,-1.644 17.285,-5.708 26.122,-9.426 5.126,-3.354 10.499,-5.948 16.06,-8.477 l 2.252,-0.841 c 13.191,-1.421 24.367,7.16 37.841,5.581 1.382,-0.216 1.661,-0.138 2.556,-1.296 1.56,-2.017 3.141,-6.983 2.698,-9.543 2.137,-1.61 4.182,-4.447 6.094,-6.414 z"
       id="path71-7" />
    <path
       fill="#b37842"
       d="m 922.08805,772.13854 2.252,-0.841 c 5.39,20.68 2.225,44.307 -4.912,64.2 l 8.583,-0.12 c 1.681,-3.637 5.007,-6.614 7.723,-9.511 -0.813,1.707 -1.862,3.504 -2.241,5.363 l 0.505,0.749 c 2.027,0.117 3.294,-0.824 5.123,-1.592 l 0.312,0.429 c -1.436,2.397 -3.203,4.538 -4.628,6.94 2.516,-1.365 4.921,-2.795 7.708,-3.531 -0.504,0.567 -0.44,0.522 -1.117,1.126 -6.143,5.476 -17.498,7.414 -25.448,6.917 -7.651,-0.478 -15.311,-2.55 -20.484,-8.598 -6.074,-7.101 -6.939,-16.34 -5.357,-25.182 0.487,-2.721 1.502,-5.552 1.641,-8.303 0.014,-0.276 0.021,-0.551 0.031,-0.827 1.027,-2.218 3.42,-6.004 3.478,-8.326 -5.398,-1.037 -9.479,2.56 -14.874,-0.694 -0.161,-0.096 -0.318,-0.197 -0.477,-0.296 9.603,-1.644 17.285,-5.708 26.122,-9.426 -3.121,5.997 -8.991,7.438 -10.848,15.189 -2.286,9.538 -2.45,21.541 2.84,30.09 1.53,-4.496 2.816,-9.216 4.902,-13.487 l 0.469,0.741 -0.011,-0.265 c -1.671,4.543 -1.969,8.976 -2.378,13.741 2.77,3.481 5.494,6.675 9.235,9.149 9.377,-14.835 10.545,-32.275 11.581,-49.32 0.282,-4.635 1.032,-9.717 0.27,-14.315 z"
       id="path72-5" />
    <path
       fill="#e8b171"
       d="m 979.43905,753.94754 c 0.189,6.547 -2.824,14.489 -7.463,19.222 -0.122,0.124 -0.255,0.236 -0.382,0.354 l -1.546,1.773 c -0.401,2.69 -0.763,5.354 -1.798,7.893 l -1.132,-0.22 c -2.142,0.849 -3.677,0.607 -5.832,0.041 1.042,7.425 0.228,16.004 -1.801,23.192 -0.854,3.025 -2.2,6.222 -2.788,9.289 -0.169,0.885 0.016,1.583 0.379,2.389 -4.311,6.175 -8.282,11.986 -14.563,16.344 -2.787,0.736 -5.192,2.166 -7.708,3.531 1.425,-2.402 3.192,-4.543 4.628,-6.94 l -0.312,-0.429 c -1.829,0.768 -3.096,1.709 -5.123,1.592 l -0.505,-0.749 c 0.379,-1.859 1.428,-3.656 2.241,-5.363 -2.716,2.897 -6.042,5.874 -7.723,9.511 l -8.583,0.12 c 7.137,-19.893 10.302,-43.52 4.912,-64.2 13.191,-1.421 24.367,7.16 37.841,5.581 1.382,-0.216 1.661,-0.138 2.556,-1.296 1.56,-2.017 3.141,-6.983 2.698,-9.543 2.137,-1.61 4.182,-4.447 6.094,-6.414 z"
       id="path73-8" />
    <path
       fill="#fefdfe"
       d="m 964.95205,778.57654 c 0.838,1.45 1.603,2.813 2.166,4.393 -2.142,0.849 -3.677,0.607 -5.832,0.041 l 0.23,-1.807 c 0.813,-1.474 1.997,-1.913 3.436,-2.627 z"
       id="path74-3" />
    <path
       fill="#fdd49f"
       d="m 970.04805,775.29654 c -0.401,2.69 -0.763,5.354 -1.798,7.893 l -1.132,-0.22 c -0.563,-1.58 -1.328,-2.943 -2.166,-4.393 1.948,-0.903 3.452,-1.902 5.096,-3.28 z"
       id="path75-0" />
    <path
       fill="#d3995c"
       d="m 949.52805,778.29654 c 2.478,3.942 1.929,16.536 1.961,21.736 0.055,8.977 -1.019,19.378 -7.597,26.041 l -0.411,-0.4 c 0.108,-0.443 0.185,-0.832 0.387,-1.258 5.798,-12.236 6.779,-20.324 5.725,-33.663 -0.329,-4.161 -0.803,-8.315 -0.065,-12.456 z"
       id="path76-1" />
    <path
       fill="#b37842"
       d="m 780.97505,446.57124 c 2.359,-1.3502 5.014,-2.2659 7.76,-2.1854 l 0.555,0.5324 c -1.067,3.2688 -2.981,6.1395 -4.43,9.2461 -2.682,5.7543 -4.716,12.0034 -6.331,18.1256 -3.442,13.0466 -3.937,26.5876 -7.505,39.5986 -3.094,11.279 -8.013,21.954 -11.088,33.24 -5.626,20.65 -6.176,52.652 0.089,73.016 0.775,2.725 2.649,4.38 3.887,6.839 1.762,16.098 6.265,31.602 9.771,47.373 7.471,24.592 0.534,45.216 27.709,59.908 9.84,5.32 20.457,7.659 31.299,9.925 -2.986,7.277 -5.986,17.59 -2.676,25.213 1.94,4.47 5.956,7.071 10.39,8.67 6.406,2.311 13.315,2.711 19.607,5.475 l 1.037,-1.368 c 3.302,-0.277 6.044,1.553 8.459,3.603 0.93,0.79 1.799,1.598 2.666,2.457 0.658,0.651 1.239,0.87 2.088,1.192 l 0.095,0.765 c 1.85,0.744 3.598,1.42 5.549,1.845 0.159,0.099 0.316,0.2 0.477,0.296 5.395,3.254 9.476,-0.343 14.874,0.694 -0.058,2.322 -2.451,6.108 -3.478,8.326 -2.489,4.95 -4.64,9.846 -4.967,15.461 -11.06,3.509 -16.959,-8.261 -25.986,-11.469 -4.77,-1.695 -9.806,-2.201 -14.769,-3.03 -11.058,-1.846 -21.951,-5.71 -30.128,-13.644 -4.638,-4.499 -8.041,-11.799 -14.353,-13.827 -4.696,-8.923 -8.302,-18.234 -12.455,-27.402 2.234,10.744 6.593,20.66 9.714,31.13 2.465,5.346 4.766,10.938 7.695,16.047 7.876,13.737 21.235,22.055 32.817,32.297 -8.32,-4.253 -16.945,-7.885 -25.268,-12.134 -15.809,-8.07 -29.276,-17.847 -42.71,-29.419 16.552,26.87 49.761,35.285 76.272,49.199 q -2.384,-0.148 -4.76,-0.391 -2.376,-0.243 -4.74,-0.579 -2.365,-0.337 -4.714,-0.767 -2.35,-0.43 -4.68,-0.953 -2.331,-0.523 -4.639,-1.137 -2.308,-0.615 -4.589,-1.32 -2.282,-0.706 -4.534,-1.501 -2.252,-0.796 -4.471,-1.68 -2.219,-0.884 -4.401,-1.855 -2.182,-0.971 -4.324,-2.028 -2.142,-1.057 -4.24,-2.198 -2.098,-1.141 -4.15,-2.364 -2.051,-1.223 -4.053,-2.526 -2.001,-1.304 -3.949,-2.685 -1.948,-1.382 -3.84,-2.84 -1.892,-1.457 -3.725,-2.989 c -44.307,-36.755 -57.189,-96.676 -61.197,-151.36 -1.03,-14.049 -0.311,-28.212 -1.615,-42.227 -5.782,41.701 -4.322,91.35 10.41,131.174 3.657,9.888 9.291,18.756 13.331,28.458 -24.299,-24.366 -35.032,-56.097 -42.508,-88.889 -2.247,-9.856 -4.973,-20.95 -4.93,-31.086 0.025,-5.934 3.117,-11.062 3.495,-16.846 0.848,-13.002 1.182,-25.783 3.141,-38.709 5.087,-33.589 19.958,-66.909 37.144,-95.952 3.646,-6.16 7.853,-11.95 11.676,-17.9954 6.033,-9.5377 9.213,-19.739 17.494,-27.7941 -5.257,10.607 -9.613,21.6163 -14.754,32.2765 -13.215,27.399 -31.895,58.645 -34.628,89.212 4.919,-13.342 8.491,-27.086 14.432,-40.062 5.399,-11.792 13.953,-21.782 20.281,-33.05 8.636,-15.377 16.344,-46.7007 31.371,-55.3323 z"
       id="path95-6" />
    <path
       fill="#8b562b"
       d="m 726.26305,683.42254 c 1.091,7.523 2.148,14.657 5.549,21.553 -0.838,-0.641 -1.49,-1.118 -2.496,-1.451 -2.787,3.127 1.549,12.139 1.518,16.239 l -0.43,-0.074 c -1.328,-2.324 -0.942,-3.986 -1.582,-6.427 -2.382,-9.093 -3.428,-20.501 -2.559,-29.84 z"
       id="path96-4" />
    <path
       fill="#e8b171"
       d="m 726.26305,683.42254 c -0.245,-5.926 -1.31,-12.049 -1.192,-17.941 1.669,5.644 8.76,40.704 8.41,43.966 -1.037,-1.363 -1.357,-2.818 -1.669,-4.472 -3.401,-6.896 -4.458,-14.03 -5.549,-21.553 z"
       id="path97-8" />
    <path
       fill="#8b562b"
       d="m 744.21405,716.11854 c -4.05,-9.396 -12.267,-29.616 -8.927,-39.581 l 1.002,-0.441 c 0.723,3.554 1.548,7.122 2.041,10.716 0.786,9.866 4.209,19.536 5.884,29.306 z"
       id="path98-4" />
    <path
       fill="#d3995c"
       d="m 737.16505,739.74854 c 7.096,4.848 16.87,25.595 19.183,33.988 -6.045,-4.327 -15.794,-26.486 -19.183,-33.988 z"
       id="path99-6" />
    <path
       d="m 734.19905,539.43054 c 0.105,4.195 -2.597,9.99 -3.668,14.169 -4.879,19.037 -9.234,38.344 -15.48,56.998 -0.381,-0.993 -0.569,-1.837 -0.584,-2.909 -0.167,-12.143 11.541,-59.691 19.732,-68.258 z"
       id="path100-6" />
    <path
       fill="#e8b171"
       d="m 780.97505,446.57124 c 2.359,-1.3502 5.014,-2.2659 7.76,-2.1854 l 0.555,0.5324 c -1.067,3.2688 -2.981,6.1395 -4.43,9.2461 -2.682,5.7543 -4.716,12.0034 -6.331,18.1256 -3.442,13.0466 -3.937,26.5876 -7.505,39.5986 -3.094,11.279 -8.013,21.954 -11.088,33.24 -5.626,20.65 -6.176,52.652 0.089,73.016 0.775,2.725 2.649,4.38 3.887,6.839 1.762,16.098 6.265,31.602 9.771,47.373 7.471,24.592 0.534,45.216 27.709,59.908 9.84,5.32 20.457,7.659 31.299,9.925 -2.986,7.277 -5.986,17.59 -2.676,25.213 1.94,4.47 5.956,7.071 10.39,8.67 6.406,2.311 13.315,2.711 19.607,5.475 l 1.037,-1.368 c 3.302,-0.277 6.044,1.553 8.459,3.603 0.93,0.79 1.799,1.598 2.666,2.457 0.658,0.651 1.239,0.87 2.088,1.192 l 0.095,0.765 c 1.85,0.744 3.598,1.42 5.549,1.845 0.159,0.099 0.316,0.2 0.477,0.296 5.395,3.254 9.476,-0.343 14.874,0.694 -0.058,2.322 -2.451,6.108 -3.478,8.326 -2.489,4.95 -4.64,9.846 -4.967,15.461 -11.06,3.509 -16.959,-8.261 -25.986,-11.469 -4.77,-1.695 -9.806,-2.201 -14.769,-3.03 -11.058,-1.846 -21.951,-5.71 -30.128,-13.644 -4.638,-4.499 -8.041,-11.799 -14.353,-13.827 -4.696,-8.923 -8.302,-18.234 -12.455,-27.402 2.234,10.744 6.593,20.66 9.714,31.13 l -0.458,0.526 -1.096,-0.165 c -2.986,-1.971 -5.476,-4.826 -7.952,-7.393 -11.753,-12.185 -19.677,-25.903 -26.298,-41.348 -2.672,-6.234 -4.727,-13.091 -8.183,-18.92 l -0.349,-0.575 c 1.809,5.109 2.857,10.458 4.487,15.627 5.026,15.943 12.489,32.708 23.463,45.383 4.425,5.111 10.007,9.152 14.563,14.188 l 0.62,0.691 c -7.211,-3.844 -14.866,-8.086 -20.884,-13.653 -16.395,-15.167 -25.816,-39.372 -30.911,-60.809 -1.521,-6.401 -2.283,-13.011 -3.929,-19.363 -0.424,-1.638 -0.816,-3.416 -2.189,-4.52 l -1.389,0.567 c -0.493,-3.594 -1.318,-7.162 -2.041,-10.716 -1.726,-13.832 -3.544,-28.053 -3.788,-41.998 -0.237,-13.557 1.159,-27.658 2.432,-41.151 2.599,-27.543 5.193,-56.047 16.097,-81.78 2.754,-6.499 6.174,-12.686 9.15,-19.082 3.525,-7.575 6.647,-15.3383 10.3,-22.8561 3.503,-7.211 7.945,-14.456 10.337,-22.1293 0.054,-0.1757 0.105,-0.3526 0.158,-0.5289 z"
       id="path101-6" />
    <path
       fill="#ca8773"
       d="m 861.04905,780.17954 c 3.302,-0.277 6.044,1.553 8.459,3.603 0.93,0.79 1.799,1.598 2.666,2.457 0.658,0.651 1.239,0.87 2.088,1.192 l 0.095,0.765 c -1.746,-0.147 -3.513,-0.648 -5.196,-1.125 -3.399,-0.965 -7.339,-2.284 -9.149,-5.524 z"
       id="path102-3" />
    <path
       fill="#b37842"
       d="m 807.43305,750.31954 c 0.364,0.461 11.276,25.674 11.798,27.409 -0.609,-0.258 -0.699,-0.26 -1.309,-0.727 -6.9,-5.283 -9.473,-18.685 -10.489,-26.682 z"
       id="path103-3" />
    <path
       fill="#b37842"
       d="m 749.72605,580.33954 c 0.571,6.01 -0.766,13.333 -1.15,19.44 q -1.063,17.319 -1.52,34.665 c -0.155,5.078 -0.325,10.248 -0.065,15.322 0.28,5.466 1.106,10.997 0.693,16.476 l -0.583,0.367 -0.253,-1.245 c -5.635,-28.658 -5.306,-56.876 2.878,-85.025 z"
       id="path104-4" />
    <path
       fill="#e8b171"
       d="m 803.56505,440.48514 c 3.772,-0.6246 7.429,-1.2151 11.259,-1.2486 -4.459,21.2802 -4.896,42.0159 -2.3,63.572 0.923,-8.878 1.39,-17.554 1.397,-26.4801 0.008,-10.1778 -0.505,-20.3143 0.88,-30.4298 q 0.904,4.4695 1.998,8.8964 0.084,-0.7178 0.187,-1.4331 c 0.335,-2.2686 0.663,-3.55 2.517,-4.9553 0.695,3.8953 1.006,8.0516 1.081,12.0074 1.796,-3.3333 -0.207,-16.7979 -0.432,-21.1972 2.956,0.8523 5.645,1.7705 8.417,3.1168 0.175,0.9093 0.461,1.2726 1.061,1.9269 3.113,3.3942 12.927,19.2643 16.202,19.6236 l 0.993,0.8597 0.669,-0.2439 c 0.769,-5.9103 -5.262,-12.8551 -6.278,-18.9146 0.629,-1.308 1.567,-1.7277 2.77,-2.4116 7.254,1.3725 12.125,7.9362 16.058,13.7077 1.112,1.6321 2.281,3.2681 3.28,4.9717 -0.327,-4.4193 -4.498,-9.3327 -6.958,-12.9724 -0.325,-1.4162 -0.659,-2.121 -0.221,-3.5266 1.95,-0.6834 4.453,0.6935 6.38,1.3837 0.865,0.357 1.464,0.7306 2.19,1.3204 1.598,0.4084 3.09,0.9434 4.724,1.247 1.461,-0.5631 1.605,-0.9508 2.508,-2.1788 5.999,6.6448 20.902,25.0432 27.479,28.5777 1.847,0.2595 3.349,2.4673 5.093,3.3242 8.368,9.9852 16.786,19.8902 25.006,29.9982 4.483,5.512 9.118,10.588 12.608,16.833 3.088,9.579 8.943,17.486 13.578,26.296 4.349,8.267 7.965,17.007 11.723,25.558 1.987,4.521 4.573,9.462 5.326,14.363 0.67,1.497 1.558,3.097 1.803,4.718 l 0.391,0.745 c 1.632,3.033 3.762,4.295 3.415,8.056 1.125,2.78 2.227,5.508 3.685,8.136 6.47,2.666 9.265,6.78 12.282,12.801 4.656,13.502 2.667,21.422 -0.996,34.945 1.566,5.637 2.903,11.333 4.489,16.965 4.14095,14.705 8.35795,29.124 0.224,43.298 -0.699,1.218 -1.744,2.502 -2.269,3.769 -0.174,3.049 -1.569,5.942 -3.494,8.291 -1.411,1.247 -1.449,3.779 -2.191,5.543 -2.397,-0.458 -4.789,-1.418 -7.199,-1.979 0.264,5.926 0.339,11.606 -3.461,16.583 l -5.91,5.678 c -1.912,1.967 -3.957,4.804 -6.094,6.414 0.443,2.56 -1.138,7.526 -2.698,9.543 -0.895,1.158 -1.174,1.08 -2.556,1.296 -13.474,1.579 -24.65,-7.002 -37.841,-5.581 l -2.252,0.841 c -5.561,2.529 -10.934,5.123 -16.06,8.477 -8.837,3.718 -16.519,7.782 -26.122,9.426 -1.951,-0.425 -3.699,-1.101 -5.549,-1.845 l -0.095,-0.765 c -0.849,-0.322 -1.43,-0.541 -2.088,-1.192 -0.867,-0.859 -1.736,-1.667 -2.666,-2.457 -2.415,-2.05 -5.157,-3.88 -8.459,-3.603 l -1.037,1.368 c -6.292,-2.764 -13.201,-3.164 -19.607,-5.475 -4.434,-1.599 -8.45,-4.2 -10.39,-8.67 -3.31,-7.623 -0.31,-17.936 2.676,-25.213 -10.842,-2.266 -21.459,-4.605 -31.299,-9.925 -27.175,-14.692 -20.238,-35.316 -27.709,-59.908 -3.506,-15.771 -8.009,-31.275 -9.771,-47.373 -1.238,-2.459 -3.112,-4.114 -3.887,-6.839 1.589,-5.457 -0.242,-24.063 -0.276,-31.271 q -0.004,-12.003 0.963,-23.966 c 1.592,-19.345 10.111,-36.921 14.949,-55.498 4.295,-16.489 5.545,-33.5663 12.43,-49.3573 3.412,-7.8248 7.098,-14.2601 15.474,-17.5671 z"
       id="path116-6" />
    <path
       fill="#f7c3a8"
       d="m 843.37905,575.35354 c 5.039,0.925 11.268,1.879 15.663,4.697 l -0.836,2.224 c -3.936,-1.872 -12.361,-3.616 -14.827,-6.921 z"
       id="path117-9" />
    <path
       fill="#fdd49f"
       d="m 892.51705,488.06854 c -2.442,-1.91 -6.938,-6.9912 -7.434,-10.098 l 0.778,-0.4941 1.423,0.4011 c 2.304,2.9621 5.14,5.4934 7.341,8.506 -0.691,0.543 -1.487,1.069 -2.108,1.685 z"
       id="path118-5" />
    <path
       fill="#d3995c"
       d="m 792.43305,657.25954 c 4.916,-0.502 9.723,3.603 14.901,3.832 l -1.264,0.642 q -3.339,0.822 -6.663,1.701 c -1.931,0.035 -5.026,0.592 -6.662,-0.45 -0.884,-1.766 -0.413,-3.801 -0.312,-5.725 z"
       id="path119-1" />
    <path
       fill="#d3995c"
       d="m 933.75005,565.90354 c -0.448,-3.815 -4.056,-15.801 -2.877,-18.507 l 0.855,0.356 4.04,12.201 -1.15,1.405 c 2.137,6.536 1.445,14.313 -0.23,20.876 -0.057,-5.421 -0.012,-10.942 -0.638,-16.331 z"
       id="path120-7" />
    <path
       fill="#f9e9d4"
       d="m 878.80805,506.03354 0.585,-0.075 1.821,2.57 c 1.845,6.393 4.562,12.572 6.661,18.896 2.209,6.655 3.721,13.45 5.168,20.302 -6.511,-12.949 -9.469,-27.984 -14.235,-41.693 z"
       id="path121-3" />
    <path
       fill="#fefdfe"
       d="m 859.04205,580.05054 c 8.257,4.524 15.288,10.179 22.365,16.321 l 0.8,1.125 c 0.193,0.494 0.084,0.891 0.035,1.409 l -0.924,0.305 c -4.459,-1.847 -8.803,-6.813 -12.602,-9.836 -3.338,-2.656 -6.832,-4.952 -10.51,-7.1 z"
       id="path122-2" />
    <path
       fill="#f9e9d4"
       d="m 843.98605,443.17374 c 7.254,1.3725 12.125,7.9362 16.058,13.7077 1.112,1.6321 2.281,3.2681 3.28,4.9717 1.387,2.3562 2.753,4.7247 4.247,7.0157 l -0.672,0.6599 c -4.651,-4.6925 -7.996,-10.4849 -12.387,-15.3911 -3.254,-3.6344 -8.05,-6.8062 -10.526,-10.9639 z"
       id="path123-2" />
    <path
       fill="#f9e9d4"
       d="m 816.79905,454.79504 q 0.084,-0.7178 0.187,-1.4331 c 0.335,-2.2686 0.663,-3.55 2.517,-4.9553 0.695,3.8953 1.006,8.0516 1.081,12.0074 -0.162,0.9514 -0.144,0.5216 -0.089,1.4653 0.437,7.4863 1.138,15.3871 -0.63,22.7262 -0.74,-9.9319 -2.026,-19.8994 -3.066,-29.8105 z"
       id="path124-3" />
    <path
       fill="#f9e9d4"
       d="m 888.77005,610.89754 7.731,4.635 c 6.16,4.455 14.656,9.478 15.841,17.688 0.162,1.122 0.124,2.247 0.061,3.375 -2.911,-1.133 -5.261,-6.824 -7.141,-9.339 -4.155,-5.555 -11.501,-11.094 -16.492,-16.359 z"
       id="path125-2" />
    <path
       fill="#f9e9d4"
       d="m 838.60805,498.21354 c 0.857,0.406 0.696,0.244 1.357,0.875 6.153,5.882 11.334,29.483 10.995,38.011 -1.054,-1.408 -11.528,-34.904 -12.352,-38.886 z"
       id="path126-2" />
    <path
       fill="#fdd49f"
       d="m 924.16705,530.37454 c 6.604,5.186 15.828,26.946 16.973,35.063 -2.772,-1.211 -3.859,-2.919 -5.372,-5.484 l -4.04,-12.201 c -1.558,-6.065 -5.999,-11.22 -7.561,-17.378 z"
       id="path127-6" />
    <path
       d="m 801.75705,500.25454 c -0.225,10.361 -3.636,21.084 -4.713,31.479 -1.182,11.403 -0.345,22.806 -1.344,34.124 -2.602,-13.764 -2.172,-26.113 0,-39.904 1.417,-8.233 2.98,-17.914 6.057,-25.699 z"
       id="path128-2" />
    <path
       fill="#fdd49f"
       d="m 878.80805,506.03354 c -0.547,-1.359 -1.245,-2.256 -0.856,-3.706 2.555,0.49 5.014,3.868 6.515,5.954 3.355,4.665 19.287,41.295 18.366,46.065 -0.037,0.195 -0.113,0.379 -0.169,0.569 l -0.643,0.089 c -1.654,-2.063 -2.011,-4.985 -2.942,-7.43 -3.161,-8.306 -11.619,-34.777 -17.865,-39.046 l -1.821,-2.57 z"
       id="path129-2" />
    <path
       fill="url(#gradient_5)"
       d="m 920.77705,552.44554 c 4.967,6.938 11.186,35.29 9.601,43.36 -0.21,1.074 -0.43,1.314 -1.196,2.02 -0.928,-0.09 -1.201,-0.125 -2.034,-0.613 2.024,-14.612 -5.254,-30.213 -6.371,-44.767 z"
       id="path130-4"
       style="fill:url(#linearGradient13)" />
    <path
       fill="#f9e9d4"
       d="m 791.86105,517.04254 c 2.665,-6.301 9.153,-31.256 11.466,-33.8941 l 0.731,0.0247 c 1.157,4.6974 -1.985,11.5544 -2.277,16.5154 -0.011,0.188 -0.016,0.377 -0.024,0.566 -3.077,7.785 -4.64,17.466 -6.057,25.699 -0.577,-0.854 -0.407,-0.493 -0.753,-1.395 -0.101,-0.264 -0.193,-0.531 -0.294,-0.795 -0.833,-2.18 -1.32,-2.97 -3.434,-3.908 0.303,-0.925 0.459,-1.858 0.642,-2.813 z"
       id="path131-5" />
    <path
       fill="url(#gradient_6)"
       d="m 862.23505,530.50754 c -3.077,-8.881 -6.417,-17.617 -10.72,-25.99 -3.712,-7.223 -11.213,-14.864 -12.977,-22.7701 -0.247,-1.1089 -0.259,-1.1599 0.397,-2.1236 1.388,0.1446 1.997,0.6777 3.091,1.4747 7.973,12.598 18.299,30.025 20.859,44.675 0.213,1.641 0.707,3.501 0.139,5.061 z"
       id="path132-6"
       style="fill:url(#linearGradient14)" />
    <path
       fill="#d3995c"
       d="m 825.43205,577.73754 c 4.975,-2.78 10.242,-3.703 15.864,-2.956 -1.796,1.471 -3.378,1.946 -5.579,2.576 l -2.035,0.603 c -6.285,6.674 -10.942,16.109 -10.787,25.452 0.005,0.316 0.019,0.632 0.029,0.948 l -5.222,2.693 c 0.697,-9.164 2.505,-16.444 5.935,-24.961 l -0.917,-0.408 -3.037,1.205 c 1.548,-2.121 3.533,-3.775 5.749,-5.152 z"
       id="path133-9" />
    <path
       fill="#b37842"
       d="m 819.68305,582.88954 c 1.548,-2.121 3.533,-3.775 5.749,-5.152 0.262,0.15 0.522,0.302 0.785,0.448 1.147,0.639 2.355,1.017 3.601,1.41 -0.544,0.796 -4.63,2.494 -5.704,2.625 -0.283,0.034 -0.325,-0.016 -0.477,-0.128 l -0.917,-0.408 z"
       id="path134-2" />
    <path
       fill="#fdd49f"
       d="m 951.94905,583.62354 1.397,-0.238 c 1.492,2.477 4.157,3.213 5.633,5.326 0.765,2.31 1.436,5.156 3.532,6.629 1.572,8.298 3.044,16.508 4.049,24.898 -1.669,1.429 -3.379,2.827 -4.994,4.316 l -0.841,-0.25 c -2.53,-3.078 -4.522,-17.453 -5.805,-22.076 -1.674,-6.031 -4.372,-11.909 -5.817,-17.954 z"
       id="path135-7" />
    <path
       fill="#f9e9d4"
       d="m 949.10305,584.27454 2.846,-0.651 0.193,0.8 c 3.065,12.389 11.336,26.752 8.583,39.881 -2.53,-3.078 -4.522,-17.453 -5.805,-22.076 -1.674,-6.031 -4.372,-11.909 -5.817,-17.954 z"
       id="path136-7" />
    <path
       fill="url(#gradient_7)"
       d="m 892.51705,488.06854 c 0.621,-0.616 1.417,-1.142 2.108,-1.685 21.356,22.328 39.774,46.673 50.717,75.823 1.782,4.749 4.669,11.53 4.323,16.677 -0.02,0.298 -0.065,0.594 -0.097,0.891 -0.226,-0.102 -0.455,-0.197 -0.677,-0.306 -4.33,-2.126 -6.408,-9.687 -7.751,-14.031 -1.145,-8.117 -10.369,-29.877 -16.973,-35.063 -4.802,-7.108 -8.917,-14.66 -13.97,-21.604 -5.31,-7.3 -11.683,-13.962 -17.68,-20.702 z"
       id="path137-8"
       style="fill:url(#linearGradient15)" />
    <path
       fill="#b37842"
       d="m 845.67705,482.93264 c 9.656,4.1979 18.273,22.2059 21.971,31.5309 8.472,21.36 13.441,44.951 15.772,67.766 0.392,3.837 1.497,10.071 0.056,13.751 -0.34,0.868 -0.506,0.996 -1.269,1.516 l -0.8,-1.125 c 0.462,-3.853 -0.842,-9.145 -1.357,-13.044 -3.58,-27.122 -9.634,-56.116 -21.524,-80.916 -3.348,-6.984 -8.685,-12.462 -12.602,-19.0533 z"
       id="path138-4" />
    <path
       d="m 875.21705,476.21504 c 7.793,2.5981 29.935,38.0345 33.966,46.1805 4.692,9.481 8.66,19.888 11.594,30.05 1.117,14.554 8.395,30.155 6.371,44.767 l -0.899,-0.784 c -9.707,-49.632 -19.759,-79.851 -51.032,-120.2135 z"
       id="path139-2" />
    <path
       fill="#b37842"
       d="m 817.22705,579.57554 c -10.802,-25.206 -9.98,-49.672 -1.351,-75.456 0.079,4.689 -0.317,9.391 -0.281,14.086 0.114,14.509 1.226,32.036 6.19,45.686 1.113,3.06 2.394,6.335 5.498,7.755 -3.7,2.299 -7.103,4.693 -10.056,7.929 z"
       id="path140-2" />
    <path
       fill="url(#gradient_8)"
       d="m 867.57105,468.86884 c 2.274,2.391 4.851,5.5645 7.646,7.3462 31.273,40.3625 41.325,70.5815 51.032,120.2135 -0.252,1.247 -0.332,2.533 -1.278,3.461 -1.728,-1.605 -2.845,-5.168 -3.54,-7.456 -2.365,-7.788 -3.441,-16.185 -5.294,-24.129 -2.719,-11.657 -6.848,-24.61 -11.113,-35.822 -6.281,-16.511 -16.318,-31.286 -26.045,-45.907 -3.809,-5.7248 -7.518,-11.8964 -12.08,-17.0468 z"
       id="path141-8"
       style="fill:url(#linearGradient16)" />
    <path
       d="m 842.02605,481.09854 c 1.976,0.2059 2.185,0.585 3.651,1.8341 l 0.247,0.4256 c 3.917,6.5913 9.254,12.0693 12.602,19.0533 11.89,24.8 17.944,53.794 21.524,80.916 0.515,3.899 1.819,9.191 1.357,13.044 -7.077,-6.142 -14.108,-11.797 -22.365,-16.321 -4.395,-2.818 -10.624,-3.772 -15.663,-4.697 l -2.083,-0.572 c -5.622,-0.747 -10.889,0.176 -15.864,2.956 -2.216,1.377 -4.201,3.031 -5.749,5.152 -4.077,6.039 -7.569,12.735 -11.891,18.53 2.247,-7.947 5.124,-14.795 9.435,-21.844 2.953,-3.236 6.356,-5.63 10.056,-7.929 10.258,-3.558 20.014,-2.435 29.732,2.232 6.647,3.193 12.82,7.803 18.829,12.05 -0.734,-5.255 -2.733,-10.738 -3.966,-15.949 -1.301,-5.502 -2.093,-11.15 -3.605,-16.595 -1.315,-5.495 -2.849,-10.944 -4.294,-16.407 -0.654,-2.146 -1.235,-4.285 -1.744,-6.47 l 0.789,0.327 c 0.568,-1.56 0.074,-3.42 -0.139,-5.061 -2.56,-14.65 -12.886,-32.077 -20.859,-44.675 z"
       id="path142-2" />
    <path
       fill="#f7c3a8"
       d="m 862.88505,525.77354 c 1.12,3.39 2.086,6.787 2.982,10.242 1.22,4.68 3.412,10.449 3.573,15.247 l -1.167,2.122 c -1.315,-5.495 -2.849,-10.944 -4.294,-16.407 -0.654,-2.146 -1.235,-4.285 -1.744,-6.47 l 0.789,0.327 c 0.568,-1.56 0.074,-3.42 -0.139,-5.061 z"
       id="path143-7" />
    <path
       fill="#f9e9d4"
       d="m 868.27305,553.38454 1.167,-2.122 c 3.673,13.006 6.581,26.221 10.185,39.254 l -3.781,-4.588 c -0.734,-5.255 -2.733,-10.738 -3.966,-15.949 -1.301,-5.502 -2.093,-11.15 -3.605,-16.595 z"
       id="path144-9" />
    <path
       fill="url(#gradient_9)"
       d="m 871.94705,447.12644 c 5.999,6.6448 20.902,25.0432 27.479,28.5777 1.847,0.2595 3.349,2.4673 5.093,3.3242 8.368,9.9852 16.786,19.8902 25.006,29.9982 4.483,5.512 9.118,10.588 12.608,16.833 3.088,9.579 8.943,17.486 13.578,26.296 4.349,8.267 7.965,17.007 11.723,25.558 1.987,4.521 4.573,9.462 5.326,14.363 0.67,1.497 1.558,3.097 1.803,4.718 -1.07,-1.496 -2.279,-2.917 -3.472,-4.317 -4.834,-5.67 -10.278,-8.51 -17.745,-9.092 l -1.397,0.238 -2.846,0.651 c -4.997,2.653 -9.545,6.051 -14.127,9.348 3.484,-5.196 8.85,-11.128 14.592,-13.848 0.032,-0.297 0.077,-0.593 0.097,-0.891 0.346,-5.147 -2.541,-11.928 -4.323,-16.677 -10.943,-29.15 -29.361,-53.495 -50.717,-75.823 -2.201,-3.0126 -5.037,-5.5439 -7.341,-8.506 l 0.247,-0.5584 c -1.705,-4.2747 -18.613,-25.7996 -22.816,-29.2609 1.598,0.4084 3.09,0.9434 4.724,1.247 1.461,-0.5631 1.605,-0.9508 2.508,-2.1788 z"
       id="path145-9"
       style="fill:url(#linearGradient17)" />
    <path
       d="m 887.53105,477.31914 c 34.05,33.5354 52.547,54.9484 66.009,101.8174 8.647,2.003 13.334,6.633 19.22,12.94 0.67,1.497 1.558,3.097 1.803,4.718 -1.07,-1.496 -2.279,-2.917 -3.472,-4.317 -4.834,-5.67 -10.278,-8.51 -17.745,-9.092 l -1.397,0.238 -2.846,0.651 c -4.997,2.653 -9.545,6.051 -14.127,9.348 3.484,-5.196 8.85,-11.128 14.592,-13.848 0.032,-0.297 0.077,-0.593 0.097,-0.891 0.346,-5.147 -2.541,-11.928 -4.323,-16.677 -10.943,-29.15 -29.361,-53.495 -50.717,-75.823 -2.201,-3.0126 -5.037,-5.5439 -7.341,-8.506 z"
       id="path146-0" />
    <path
       d="m 822.92405,604.36054 c 10.084,-3.813 18.852,-4.655 28.909,-0.065 12.51,5.709 21.641,16.913 31.89,25.748 q 11.723,9.946 24.498,18.5 c 2.331,-3.978 3.489,-7.409 4.182,-11.948 0.063,-1.128 0.101,-2.253 -0.061,-3.375 -1.185,-8.21 -9.681,-13.233 -15.841,-17.688 4.812,0.378 10.02,4.459 13.103,8.054 4.107,4.791 6.036,10.571 5.579,16.869 -0.371,5.114 -2.215,10.339 -6.331,13.631 -0.558,0.446 -0.589,0.42 -1.332,0.858 l 0.4,0.971 c 0.152,0.812 0.262,1.655 0.521,2.441 q 0.002,3.704 0.077,7.407 c -0.036,1.801 0.095,3.758 -0.317,5.511 l -0.352,-0.423 c -0.849,-1.008 -1.508,-1.804 -2.699,-2.43 -0.319,1.431 -0.504,3.385 -1.417,4.512 -0.903,-0.694 -0.617,-0.233 -0.787,-1.469 -0.162,-1.177 -0.209,-2.326 -0.244,-3.513 l -0.57,-0.314 c -0.689,0.884 -1.357,1.653 -1.809,2.686 -12.245,9.162 -27.925,14.498 -43.291,12.29 -6.335,-0.91 -15.422,-4.024 -19.721,-8.975 1.242,0.484 2.421,0.974 3.596,1.613 3.079,1.698 6.193,3.285 9.646,4.075 9.473,2.555 19.206,2.226 28.657,-0.432 6.727,-1.891 18.109,-5.976 21.508,-12.516 1.418,-2.729 1.003,-4.298 0.049,-7.131 -2.488,5.296 -6.475,10.45 -12.109,12.648 -2.73,1.066 -4.472,0.795 -7.155,-0.212 -5.894,2.526 -13.185,2.939 -19.504,2.243 -12.546,-1.382 -19.818,-7.684 -27.341,-17.2 -1.983,-0.299 -4.077,-0.214 -6.081,-0.25 -1.867,-9.655 5.708,-14.462 7.557,-22.21 -14.535,-1.555 -25.633,5.436 -36.602,14.043 -0.538,-5.009 -0.643,-9.797 0.23,-14.779 2.002,-11.428 8.547,-19.973 17.94,-26.477 z"
       id="path147-8" />
    <path
       fill="#edb9a7"
       d="m 863.37205,643.08454 c 5.755,2.439 11.772,4.754 16.964,8.279 -5.55,-1.491 -11.134,-2.779 -16.696,-4.21 l 0.472,-0.395 c 0.399,-1.408 -0.197,-2.402 -0.74,-3.674 z"
       id="path148-7" />
    <path
       fill="#ca8773"
       d="m 905.15005,668.42154 c 0.977,-3.841 -0.296,-7.762 -0.293,-11.647 0.813,-1.418 1.167,-1.311 2.663,-1.83 l 0.4,0.971 c 0.152,0.812 0.262,1.655 0.521,2.441 q 0.002,3.704 0.077,7.407 c -0.036,1.801 0.095,3.758 -0.317,5.511 l -0.352,-0.423 c -0.849,-1.008 -1.508,-1.804 -2.699,-2.43 z"
       id="path149-5" />
    <path
       fill="#edb9a7"
       d="m 881.50305,671.68354 c 8.775,-4.102 10.695,-4.714 14.239,-14.2 0.203,-0.044 0.402,-0.108 0.608,-0.133 1.837,-0.224 3.126,0.769 4.417,1.897 -2.488,5.296 -6.475,10.45 -12.109,12.648 -2.73,1.066 -4.472,0.795 -7.155,-0.212 z"
       id="path150-2" />
    <path
       fill="url(#gradient_10)"
       d="m 836.13405,634.26654 c 7.932,0.62 20.621,4.399 27.238,8.818 0.543,1.272 1.139,2.266 0.74,3.674 l -0.472,0.395 c -13.67,-1.096 -23.989,1.027 -35.063,9.323 -1.867,-9.655 5.708,-14.462 7.557,-22.21 z"
       id="path151-4"
       style="fill:url(#linearGradient18)" />
    <path
       fill="#fefdfe"
       d="m 863.87805,651.36454 c 5.558,0.281 25.109,2.782 28.337,6.787 0.787,0.976 1.19,1.967 0.955,3.238 -0.376,2.033 -2.218,3.716 -3.809,4.869 -9.861,7.144 -21.602,6.64 -33.038,4.91 -9.05,-2.914 -14.778,-7.261 -19.883,-15.35 q 2.759,-0.455 5.504,-0.988 c 2.276,3.434 4.283,6.685 7.993,8.768 2.85,1.601 6.323,2.085 9.45,1.027 2.122,-0.718 3.778,-2.199 4.744,-4.218 1.594,-3.332 0.968,-5.726 -0.253,-9.043 z"
       id="path152-8" />
    <path
       fill="#b37842"
       d="m 760.02505,618.14454 c 1.589,-5.457 -0.242,-24.063 -0.276,-31.271 q -0.004,-12.003 0.963,-23.966 c 1.592,-19.345 10.111,-36.921 14.949,-55.498 4.295,-16.489 5.545,-33.5663 12.43,-49.3573 3.412,-7.8248 7.098,-14.2601 15.474,-17.5671 -3.451,6.8266 -7.466,13.0072 -9.466,20.506 -1.991,7.468 -2.329,15.1387 -4.976,22.4808 0.868,2.2296 1.556,4.3236 2.068,6.6636 -1.799,6.421 -5.827,11.351 -9.423,16.854 0.24,-2.736 0.587,-5.498 0.538,-8.246 -1.946,8.402 -11.638,46.555 -9.867,52.838 l 0.716,0.845 c 1.196,-0.579 1.426,-1.403 1.845,-2.617 1.944,-5.623 2.906,-11.597 4.907,-17.237 3.71,-10.459 8.422,-20.644 11.715,-31.238 1.016,-3.268 1.821,-6.434 2.203,-9.837 0.07,-0.618 0.109,-2.186 0.623,-2.54 l 0.398,0.05 c -1.206,9.134 -4.988,18.793 -2.985,28.035 -0.183,0.955 -0.339,1.888 -0.642,2.813 -10.439,38.84 -13.148,83.362 -3.082,122.562 1.214,4.729 2.297,10.412 4.296,14.842 -0.101,1.924 -0.572,3.959 0.312,5.725 1.636,1.042 4.731,0.485 6.662,0.45 -5.143,4.774 -7.731,9.851 -8.032,16.99 q -0.032,0.984 -0.016,1.968 0.016,0.985 0.081,1.967 0.064,0.983 0.176,1.961 0.112,0.978 0.272,1.949 0.16,0.972 0.367,1.934 0.207,0.963 0.461,1.914 0.254,0.951 0.555,1.889 0.3,0.937 0.646,1.859 0.345,0.922 0.736,1.826 0.39,0.904 0.824,1.787 0.434,0.884 0.911,1.745 0.477,0.862 0.995,1.699 0.518,0.837 1.077,1.648 0.558,0.81 1.156,1.593 0.598,0.782 1.233,1.534 0.635,0.753 1.306,1.473 c 6.367,6.722 16.227,11.532 25.552,11.771 1.548,0.039 3.106,-0.05 4.651,-0.135 4.542,3.547 18.259,-6.939 23.804,-7.519 l 0.799,0.745 c -14.243,10.734 -15.229,13.216 -24.27,28.157 -10.842,-2.266 -21.459,-4.605 -31.299,-9.925 -27.175,-14.692 -20.238,-35.316 -27.709,-59.908 -3.506,-15.771 -8.009,-31.275 -9.771,-47.373 -1.238,-2.459 -3.112,-4.114 -3.887,-6.839 z"
       id="path153-1" />
    <path
       d="m 763.91205,624.98354 c 0.081,-2.844 0.081,-5.713 0.348,-8.546 q 1.372,8.712 3.102,17.361 c 1.353,6.592 8.821,34.46 6.321,38.558 -3.506,-15.771 -8.009,-31.275 -9.771,-47.373 z"
       id="path154-4" />
    <path
       d="m 953.34605,583.38554 c 7.467,0.582 12.911,3.422 17.745,9.092 1.193,1.4 2.402,2.821 3.472,4.317 l 0.391,0.745 c 1.632,3.033 3.762,4.295 3.415,8.056 1.125,2.78 2.227,5.508 3.685,8.136 6.47,2.666 9.265,6.78 12.282,12.801 4.656,13.502 2.667,21.422 -0.996,34.945 1.566,5.637 2.903,11.333 4.489,16.965 4.14095,14.705 8.35795,29.124 0.224,43.298 -0.699,1.218 -1.744,2.502 -2.269,3.769 -0.174,3.049 -1.569,5.942 -3.494,8.291 -1.411,1.247 -1.449,3.779 -2.191,5.543 -2.397,-0.458 -4.789,-1.418 -7.199,-1.979 0.264,5.926 0.339,11.606 -3.461,16.583 l -5.91,5.678 c -1.912,1.967 -3.957,4.804 -6.094,6.414 0.443,2.56 -1.138,7.526 -2.698,9.543 -0.895,1.158 -1.174,1.08 -2.556,1.296 -13.474,1.579 -24.65,-7.002 -37.841,-5.581 l -2.252,0.841 c -5.561,2.529 -10.934,5.123 -16.06,8.477 -8.837,3.718 -16.519,7.782 -26.122,9.426 -1.951,-0.425 -3.699,-1.101 -5.549,-1.845 l -0.095,-0.765 c -0.849,-0.322 -1.43,-0.541 -2.088,-1.192 -0.867,-0.859 -1.736,-1.667 -2.666,-2.457 -2.415,-2.05 -5.157,-3.88 -8.459,-3.603 l -1.037,1.368 c -6.292,-2.764 -13.201,-3.164 -19.607,-5.475 -4.434,-1.599 -8.45,-4.2 -10.39,-8.67 -3.31,-7.623 -0.31,-17.936 2.676,-25.213 9.041,-14.941 10.027,-17.423 24.27,-28.157 l -0.799,-0.745 c -5.545,0.58 -19.262,11.066 -23.804,7.519 -1.545,0.085 -3.103,0.174 -4.651,0.135 -9.325,-0.239 -19.185,-5.049 -25.552,-11.771 q -0.671,-0.72 -1.306,-1.473 -0.635,-0.752 -1.233,-1.534 -0.598,-0.783 -1.156,-1.593 -0.559,-0.811 -1.077,-1.648 -0.518,-0.837 -0.995,-1.699 -0.477,-0.861 -0.911,-1.745 -0.434,-0.883 -0.824,-1.787 -0.391,-0.904 -0.736,-1.826 -0.346,-0.922 -0.646,-1.859 -0.301,-0.938 -0.555,-1.889 -0.254,-0.951 -0.461,-1.914 -0.207,-0.962 -0.367,-1.934 -0.16,-0.971 -0.272,-1.949 -0.112,-0.978 -0.176,-1.961 -0.065,-0.982 -0.081,-1.967 -0.016,-0.984 0.016,-1.968 c 0.301,-7.139 2.889,-12.216 8.032,-16.99 q 3.324,-0.879 6.663,-1.701 l 1.264,-0.642 c 2.879,-1.585 5.606,-2.76 8.747,-3.753 9.155,5.098 18.446,10.21 26.832,16.539 2.641,1.177 6.112,2.511 8.191,4.517 -0.229,0.808 -0.004,0.527 -0.551,0.932 -3.453,-0.79 -6.567,-2.377 -9.646,-4.075 -1.175,-0.639 -2.354,-1.129 -3.596,-1.613 4.299,4.951 13.386,8.065 19.721,8.975 15.366,2.208 31.046,-3.128 43.291,-12.29 0.452,-1.033 1.12,-1.802 1.809,-2.686 l 0.57,0.314 c 0.035,1.187 0.082,2.336 0.244,3.513 0.17,1.236 -0.116,0.775 0.787,1.469 0.913,-1.127 1.098,-3.081 1.417,-4.512 1.191,0.626 1.85,1.422 2.699,2.43 l 0.352,0.423 c 0.412,-1.753 0.281,-3.71 0.317,-5.511 q -0.075,-3.703 -0.077,-7.407 c -0.259,-0.786 -0.369,-1.629 -0.521,-2.441 3.755,0.346 7.804,0.865 11.205,-1.105 2.381,-1.379 3.718,-3.717 4.365,-6.331 2.573,-10.401 -1.995,-20.472 -7.109,-29.234 2.344,2.158 4.131,4.863 6.02,7.417 1.722,-0.193 2.245,0.002 3.632,1.1 5.586,4.427 4.199,14.501 6.121,19.187 0.868,-0.881 1.613,-1.647 2.037,-2.825 3.135,-8.72 -2.439,-18.068 -6.276,-25.624 2.341,2.249 4.626,4.519 6.411,7.252 3.791,5.802 3.417,10.801 1.941,17.225 8.849,-5.385 17.365,-11.771 25.299,-18.423 1.615,-1.489 3.325,-2.887 4.994,-4.316 -1.005,-8.39 -2.477,-16.6 -4.049,-24.898 -2.096,-1.473 -2.767,-4.319 -3.532,-6.629 -1.476,-2.113 -4.141,-2.849 -5.633,-5.326 z"
       id="path155-5" />
    <path
       fill="#edb9a7"
       d="m 974.27705,746.91354 c 0.359,-0.115 0.938,-0.287 1.259,-0.46 1.28,-0.691 1.277,-1.627 1.662,-2.911 l 1.894,1.544 c -0.337,2.923 -1.453,5.614 -2.463,8.358 -0.675,-2.236 -1.27,-4.45 -2.352,-6.531 z"
       id="path156-5" />
    <path
       fill="#ca8773"
       d="m 885.33605,695.13354 q 2.287,1.309 4.648,2.48 c 1.268,2.047 2.596,3.908 4.098,5.786 0.243,1.41 0.644,2.1 -0.206,3.306 -1.28,0.019 -1.91,-0.293 -2.92,-1.098 -3.495,-2.786 -5.108,-6.139 -5.62,-10.474 z"
       id="path157-2" />
    <path
       fill="#fefdfe"
       d="m 914.54505,658.53654 c 3.866,-0.28 9.882,-1.519 13.062,1.112 1.561,1.291 2.249,3.44 2.803,5.32 l -1.464,1.453 c -3.834,-5.956 -9.222,-4.192 -14.918,-6.112 l -0.376,-0.837 z"
       id="path158-9" />
    <path
       fill="#d3995c"
       d="m 995.78405,725.50954 c -0.174,3.049 -1.569,5.942 -3.494,8.291 -1.411,1.247 -1.449,3.779 -2.191,5.543 -2.397,-0.458 -4.789,-1.418 -7.199,-1.979 l -0.727,-1.801 0.568,-0.371 c 0.162,0.007 0.324,0.028 0.486,0.021 4.564,-0.202 9.497,-6.64 12.557,-9.704 z"
       id="path159-8" />
    <path
       fill="#ca8773"
       d="m 897.89305,707.14654 c 0.371,-1.263 0.933,-1.801 1.813,-2.733 1.292,-0.436 2.266,-0.461 3.531,0.143 3.353,1.6 5.454,4.868 6.671,8.233 l 0.794,1.222 c -3.044,-0.046 -5.862,-0.771 -8.442,-2.384 -0.612,-1.523 -3.166,-3.072 -4.367,-4.481 z"
       id="path160-1" />
    <path
       fill="#da937e"
       d="m 897.89305,707.14654 c 5.487,-0.498 7.487,3.926 12.015,5.643 l 0.794,1.222 c -3.044,-0.046 -5.862,-0.771 -8.442,-2.384 -0.612,-1.523 -3.166,-3.072 -4.367,-4.481 z"
       id="path161-1" />
    <path
       fill="#fefdfe"
       d="m 959.12605,713.02154 c 9.387,6.468 17.441,15.631 19.531,27.156 0.298,1.643 0.421,3.243 0.435,4.909 l -1.894,-1.544 q -0.873,-2.679 -1.966,-5.275 -1.093,-2.597 -2.399,-5.094 -1.305,-2.496 -2.814,-4.875 -1.509,-2.38 -3.211,-4.625 c -2.574,-3.344 -5.957,-6.802 -7.682,-10.652 z"
       id="path162-8" />
    <path
       fill="url(#gradient_11)"
       d="m 930.41005,664.96854 c 4.274,10.379 14.893,31.549 10.391,42.189 -0.29,0.683 -0.681,1.249 -1.134,1.831 -2.103,-3.165 -0.401,-9.668 -1.14,-13.556 -1.668,-8.762 -5.569,-21.063 -9.581,-29.011 z"
       id="path163-3"
       style="fill:url(#linearGradient19)" />
    <path
       fill="#d3995c"
       d="m 922.40105,626.66254 c 1.722,-0.193 2.245,0.002 3.632,1.1 5.586,4.427 4.199,14.501 6.121,19.187 -2.107,1.853 -4.549,3.358 -6.866,4.938 1.584,-9.218 1.227,-16.748 -2.887,-25.225 z"
       id="path164-2" />
    <path
       fill="#ca8773"
       d="m 956.16805,651.66054 c 7.832,-3.985 16,-10.425 24.992,-11.239 -1.63,1.138 -3.223,2.221 -4.973,3.166 0.989,4.077 2.032,8.193 1.247,12.398 -0.103,-0.087 -0.201,-0.18 -0.308,-0.261 -6.099,-4.636 -13.689,-5.132 -20.958,-4.064 z"
       id="path165-4" />
    <path
       fill="#9a6860"
       d="m 858.50005,707.73254 c 8.475,-3.82 15.112,-12.335 23.436,-15.152 -4.438,7.451 -15.01,16.649 -22.962,20.186 l -2.013,1.266 -0.799,-0.745 c -5.545,0.58 -19.262,11.066 -23.804,7.519 7.64,-3.613 15.514,-6.035 22.953,-10.22 0.992,-1.037 2.096,-1.927 3.189,-2.854 z"
       id="path166-8" />
    <path
       fill="url(#gradient_12)"
       d="m 885.33605,695.13354 c 1.308,-2.722 3.355,-5.375 6.317,-6.36 4.673,-1.555 9.047,0.862 13.065,2.98 1.076,1.162 2.284,2.846 3.541,3.758 0.813,5.157 4.436,8.786 8.531,11.73 3.002,2.158 6.253,3.458 9.338,5.413 -4.433,0.579 -8.778,-0.574 -13.073,-1.549 l -0.495,-0.768 c -0.676,-1.06 -1.337,-2.151 -2.11,-3.146 -3.371,-4.339 -7.741,-5.059 -12.837,-5.693 l -3.531,1.901 c -1.502,-1.878 -2.83,-3.739 -4.098,-5.786 q -2.361,-1.171 -4.648,-2.48 z"
       id="path167-8"
       style="fill:url(#linearGradient20)" />
    <path
       fill="#da937e"
       d="m 889.98405,697.61354 c 2.772,0.898 5.332,2.061 7.629,3.885 l -3.531,1.901 c -1.502,-1.878 -2.83,-3.739 -4.098,-5.786 z"
       id="path168-7" />
    <path
       fill="#f7c3a8"
       d="m 953.34605,583.38554 c 7.467,0.582 12.911,3.422 17.745,9.092 1.193,1.4 2.402,2.821 3.472,4.317 l 0.391,0.745 c 1.632,3.033 3.762,4.295 3.415,8.056 1.125,2.78 2.227,5.508 3.685,8.136 -5.584,1.058 -9.652,2.963 -14.436,5.933 -0.513,-5.664 -0.98,-20.39 -5.107,-24.324 -2.096,-1.473 -2.767,-4.319 -3.532,-6.629 -1.476,-2.113 -4.141,-2.849 -5.633,-5.326 z"
       id="path169-7" />
    <path
       fill="#f9e9d4"
       d="m 953.34605,583.38554 c 7.467,0.582 12.911,3.422 17.745,9.092 1.193,1.4 2.402,2.821 3.472,4.317 l 0.391,0.745 c 1.632,3.033 3.762,4.295 3.415,8.056 -5.043,-7.663 -10.435,-13.851 -19.39,-16.884 -1.476,-2.113 -4.141,-2.849 -5.633,-5.326 z"
       id="path170-2" />
    <path
       fill="#fefdfe"
       d="m 954.42805,654.53754 c 4.993,-0.46 12.046,-1.117 16.703,0.936 1.553,0.685 2.3,1.494 2.875,3.116 -0.019,1.905 -0.508,3.109 -1.694,4.616 -5.472,6.951 -14.268,8.976 -22.574,9.762 -2.463,-0.054 -4.998,-0.282 -7.358,-1.026 -4.962,-1.563 -7.168,-5.733 -9.429,-10.013 3.395,1.554 6.71,2.809 10.29,3.871 0.983,-0.349 1.968,-0.703 2.924,-1.121 4.823,-2.108 6.471,-5.522 8.263,-10.141 z"
       id="path171-4" />
    <path
       fill="#f7c3a8"
       d="m 946.62205,704.76354 c 4.257,2.521 8.713,5.06 12.504,8.258 1.725,3.85 5.108,7.308 7.682,10.652 q 1.702,2.245 3.211,4.625 1.509,2.379 2.814,4.875 1.306,2.497 2.399,5.094 1.093,2.596 1.966,5.275 c -0.385,1.284 -0.382,2.22 -1.662,2.911 -0.321,0.173 -0.9,0.345 -1.259,0.46 -1.488,-2.611 -3.199,-5.098 -5.322,-7.236 -10.463,-10.534 -25.444,-10.257 -39.255,-10.227 -0.546,-3.63 -1.353,-7.214 -2.113,-10.804 3.216,-0.425 6.723,-0.978 9.698,-2.311 5.249,-2.352 7.309,-6.534 9.337,-11.572 z"
       id="path172-9" />
    <path
       fill="#f7c3a8"
       d="m 908.44105,658.35654 6.104,0.18 -0.893,0.936 0.376,0.837 c 5.696,1.92 11.084,0.156 14.918,6.112 4.012,7.948 7.913,20.249 9.581,29.011 0.739,3.888 -0.963,10.391 1.14,13.556 -3.861,3.151 -8.774,3.362 -13.539,3.666 -3.085,-1.955 -6.336,-3.255 -9.338,-5.413 -4.095,-2.944 -7.718,-6.573 -8.531,-11.73 -1.257,-0.912 -2.465,-2.596 -3.541,-3.758 -0.018,-0.177 -0.016,-0.357 -0.054,-0.532 -0.465,-2.149 -3.119,-3.58 -4.816,-4.743 0.807,-0.223 2.166,-0.361 2.698,-1.022 1.224,-1.517 1.353,-4.271 1.21,-6.133 -0.186,-2.418 -1.578,-7.392 -3.433,-9 0.452,-1.033 1.12,-1.802 1.809,-2.686 l 0.57,0.314 c 0.035,1.187 0.082,2.336 0.244,3.513 0.17,1.236 -0.116,0.775 0.787,1.469 0.913,-1.127 1.098,-3.081 1.417,-4.512 1.191,0.626 1.85,1.422 2.699,2.43 l 0.352,0.423 c 0.412,-1.753 0.281,-3.71 0.317,-5.511 q -0.075,-3.703 -0.077,-7.407 z"
       id="path173-7" />
    <path
       fill="#da937e"
       d="m 908.51805,665.76354 c 0.748,4.72 0.492,9.587 0.894,14.355 0.647,7.682 2.034,15.198 3.519,22.752 -1.352,-2.657 -2.507,-5.248 -4.672,-7.359 -1.257,-0.912 -2.465,-2.596 -3.541,-3.758 -0.018,-0.177 -0.016,-0.357 -0.054,-0.532 -0.465,-2.149 -3.119,-3.58 -4.816,-4.743 0.807,-0.223 2.166,-0.361 2.698,-1.022 1.224,-1.517 1.353,-4.271 1.21,-6.133 -0.186,-2.418 -1.578,-7.392 -3.433,-9 0.452,-1.033 1.12,-1.802 1.809,-2.686 l 0.57,0.314 c 0.035,1.187 0.082,2.336 0.244,3.513 0.17,1.236 -0.116,0.775 0.787,1.469 0.913,-1.127 1.098,-3.081 1.417,-4.512 1.191,0.626 1.85,1.422 2.699,2.43 l 0.352,0.423 c 0.412,-1.753 0.281,-3.71 0.317,-5.511 z"
       id="path174-3" />
    <path
       fill="#f7c3a8"
       d="m 855.43705,749.78954 c -0.091,-0.204 -0.209,-0.398 -0.271,-0.612 -1.806,-6.263 6.088,-21.431 9.862,-26.454 2.567,-3.417 13.298,-14.953 17.369,-15.27 2.359,-0.184 4.523,0.678 7.088,0.289 0.166,-0.026 0.332,-0.057 0.498,-0.086 4.185,1.001 8.343,2.202 12.277,3.971 2.58,1.613 5.398,2.338 8.442,2.384 5.141,1.449 10.245,3.102 15.481,4.173 0.774,3.75 1.418,7.509 2.033,11.288 -29.924,-0.149 -47.593,3.525 -72.779,20.317 z"
       id="path175-0" />
    <path
       fill="#da937e"
       d="m 861.04905,780.17954 c -7.569,-2.461 -15.454,-6.482 -20.908,-12.416 -4.285,-4.662 -5.714,-9.581 -5.489,-15.819 1,-27.647 29.959,-37.496 47.266,-53.508 1.93,4.811 3.643,6.648 8.065,9.22 -0.166,0.029 -0.332,0.06 -0.498,0.086 -2.565,0.389 -4.729,-0.473 -7.088,-0.289 -4.071,0.317 -14.802,11.853 -17.369,15.27 -3.774,5.023 -11.668,20.191 -9.862,26.454 0.062,0.214 0.18,0.408 0.271,0.612 -1.996,2.224 -4.298,5.654 -7.613,5.588 q -0.232,-0.007 -0.462,-0.039 -0.23,-0.032 -0.455,-0.089 -0.225,-0.057 -0.442,-0.138 -0.218,-0.081 -0.425,-0.185 -0.207,-0.105 -0.402,-0.231 -0.195,-0.126 -0.375,-0.273 -0.179,-0.147 -0.342,-0.313 -0.162,-0.166 -0.306,-0.348 c -0.73,-0.912 -1.245,-2.007 -1.914,-2.97 l -0.002,0.985 0.454,-0.096 -0.427,0.897 c 0.11,2.209 -0.019,4.02 1.825,5.535 0.823,0.676 1.865,0.889 2.923,0.745 3.191,-0.437 6.285,-3.22 8.816,-5.071 7.13,10.542 18.169,20.034 30.935,22.437 2.891,0.544 5.772,0.66 8.699,0.869 -2.483,2.328 -5.354,4.34 -5.692,7.952 -5.402,2.051 -10.154,3.114 -15.97,2.387 -0.849,-0.322 -1.43,-0.541 -2.088,-1.192 -0.867,-0.859 -1.736,-1.667 -2.666,-2.457 -2.415,-2.05 -5.157,-3.88 -8.459,-3.603 z"
       id="path176-1" />
    <path
       fill="#f7c3a8"
       d="m 981.16005,640.42154 c 3.035,-0.372 6.611,-0.485 9.124,1.586 1.566,1.29 2.172,3.212 2.229,5.185 0.166,5.654 -3.182,11.574 -6.19,16.172 9.51,13.802 14.83195,30.252 11.702,47.04 -0.196,1.049 -0.489,2.025 -0.832,3.033 l -0.59,1.341 c -2.282,6.801 -6.221,12.285 -11.598,17.031 -0.829,1.085 -1.718,2.122 -2.264,3.383 l -0.568,0.371 c -4.009,-14.094 -13.511,-21.105 -25.523,-28.381 -3.712,-2.249 -7.562,-4.353 -10.578,-7.529 -0.697,-8.704 -4.421,-17.135 -7.982,-25 6.68,4.04 14.522,8.065 22.585,7.357 5.739,-0.504 11.467,-3.509 15.179,-7.92 -3.035,1.859 -6.276,3.553 -9.695,4.588 -10.307,3.118 -19.04,-1.249 -27.903,-6.056 7.147,1.73 14.333,2.592 21.469,0.295 8.917,-2.869 13.737,-8.875 17.709,-16.932 0.785,-4.205 -0.258,-8.321 -1.247,-12.398 1.75,-0.945 3.343,-2.028 4.973,-3.166 z"
       id="path177-6" />
    <path
       fill="#fefdfe"
       d="m 997.19305,713.43754 c -0.347,-0.246 -0.532,-0.343 -0.803,-0.722 -1.342,-1.876 -2.719,-15.27 -3.413,-18.496 -1.77,-8.22 -10.658,-19.705 -9.013,-28.036 0.316,-1.6 1.082,-2.051 2.359,-2.819 9.51,13.802 14.83195,30.252 11.702,47.04 -0.196,1.049 -0.489,2.025 -0.832,3.033 z"
       id="path178-7" />
    <path
       fill="#ca8773"
       d="m 946.07205,699.65354 c 15.505,2.17 27.614,15.397 39.258,23.885 2.57,-2.027 4.693,-3.939 6.657,-6.597 0.017,-6.216 -1.269,-12.485 -2.074,-18.641 1.612,4.473 2.9,8.814 3.601,13.525 0.16,0.26 0.327,0.516 0.479,0.781 0.749,1.314 0.619,2.757 0.589,4.218 0.741,-0.642 1.374,-1.312 2.021,-2.046 -2.282,6.801 -6.221,12.285 -11.598,17.031 -0.829,1.085 -1.718,2.122 -2.264,3.383 l -0.568,0.371 c -4.009,-14.094 -13.511,-21.105 -25.523,-28.381 -3.712,-2.249 -7.562,-4.353 -10.578,-7.529 z"
       id="path179-8" />
    <path
       fill="#edb9a7"
       d="m 993.51405,711.82554 c 0.16,0.26 0.327,0.516 0.479,0.781 0.749,1.314 0.619,2.757 0.589,4.218 0.741,-0.642 1.374,-1.312 2.021,-2.046 -2.282,6.801 -6.221,12.285 -11.598,17.031 -0.24,-0.505 -0.289,-1.025 -0.388,-1.571 1.414,-4.641 5.738,-8.786 8.86,-12.437 z"
       id="path180-0" />
    <path
       fill="#f7c3a8"
       d="m 807.33405,661.09154 c 2.879,-1.585 5.606,-2.76 8.747,-3.753 9.155,5.098 18.446,10.21 26.832,16.539 2.641,1.177 6.112,2.511 8.191,4.517 -0.229,0.808 -0.004,0.527 -0.551,0.932 -3.453,-0.79 -6.567,-2.377 -9.646,-4.075 -1.175,-0.639 -2.354,-1.129 -3.596,-1.613 4.299,4.951 13.386,8.065 19.721,8.975 15.366,2.208 31.046,-3.128 43.291,-12.29 1.855,1.608 3.247,6.582 3.433,9 0.143,1.862 0.014,4.616 -1.21,6.133 -0.532,0.661 -1.891,0.799 -2.698,1.022 -5.47,-0.59 -9.606,-0.671 -14.167,2.949 -1.278,1.015 -2.487,2.113 -3.745,3.153 -8.324,2.817 -14.961,11.332 -23.436,15.152 -1.093,0.927 -2.197,1.817 -3.189,2.854 -7.439,4.185 -15.313,6.607 -22.953,10.22 -1.545,0.085 -3.103,0.174 -4.651,0.135 -9.325,-0.239 -19.185,-5.049 -25.552,-11.771 q -0.671,-0.72 -1.306,-1.473 -0.635,-0.752 -1.233,-1.534 -0.598,-0.783 -1.156,-1.593 -0.559,-0.811 -1.077,-1.648 -0.518,-0.837 -0.995,-1.699 -0.477,-0.861 -0.911,-1.745 -0.434,-0.883 -0.824,-1.787 -0.391,-0.904 -0.736,-1.826 -0.346,-0.922 -0.646,-1.859 -0.301,-0.938 -0.555,-1.889 -0.254,-0.951 -0.461,-1.914 -0.207,-0.962 -0.367,-1.934 -0.16,-0.971 -0.272,-1.949 -0.112,-0.978 -0.176,-1.961 -0.065,-0.982 -0.081,-1.967 -0.016,-0.984 0.016,-1.968 c 0.301,-7.139 2.889,-12.216 8.032,-16.99 q 3.324,-0.879 6.663,-1.701 z"
       id="path181-3" />
    <path
       fill="#da937e"
       d="m 799.40705,663.43454 q 3.324,-0.879 6.663,-1.701 c -6.045,8.215 -10.414,16.815 -8.795,27.366 1.347,8.776 6.338,17.919 13.589,23.173 5.61,4.066 12.847,5.402 19.631,4.284 9.703,-1.599 18.06,-8.636 28.005,-8.824 -1.093,0.927 -2.197,1.817 -3.189,2.854 -7.439,4.185 -15.313,6.607 -22.953,10.22 -1.545,0.085 -3.103,0.174 -4.651,0.135 -9.325,-0.239 -19.185,-5.049 -25.552,-11.771 q -0.671,-0.72 -1.306,-1.473 -0.635,-0.752 -1.233,-1.534 -0.598,-0.783 -1.156,-1.593 -0.559,-0.811 -1.077,-1.648 -0.518,-0.837 -0.995,-1.699 -0.477,-0.861 -0.911,-1.745 -0.434,-0.883 -0.824,-1.787 -0.391,-0.904 -0.736,-1.826 -0.346,-0.922 -0.646,-1.859 -0.301,-0.938 -0.555,-1.889 -0.254,-0.951 -0.461,-1.914 -0.207,-0.962 -0.367,-1.934 -0.16,-0.971 -0.272,-1.949 -0.112,-0.978 -0.176,-1.961 -0.065,-0.982 -0.081,-1.967 -0.016,-0.984 0.016,-1.968 c 0.301,-7.139 2.889,-12.216 8.032,-16.99 z"
       id="path182-7" />
    <path
       fill="#f7c3a8"
       d="m 856.29005,753.78654 c 21.887,-15.145 42.73,-18.75 68.763,-19.759 7.72,-0.299 15.75,-0.782 23.441,0.079 8.473,0.95 14.718,4.291 20.108,10.972 3.399,4.565 4.811,8.856 4.927,14.547 -1.912,1.967 -3.957,4.804 -6.094,6.414 0.443,2.56 -1.138,7.526 -2.698,9.543 -0.895,1.158 -1.174,1.08 -2.556,1.296 -13.474,1.579 -24.65,-7.002 -37.841,-5.581 l -2.252,0.841 c -5.561,2.529 -10.934,5.123 -16.06,8.477 -8.837,3.718 -16.519,7.782 -26.122,9.426 -1.951,-0.425 -3.699,-1.101 -5.549,-1.845 l -0.095,-0.765 c 5.816,0.727 10.568,-0.336 15.97,-2.387 0.338,-3.612 3.209,-5.624 5.692,-7.952 -2.927,-0.209 -5.808,-0.325 -8.699,-0.869 -12.766,-2.403 -23.805,-11.895 -30.935,-22.437 z"
       id="path183-3" />
    <path
       fill="#fefdfe"
       d="m 968.60205,745.07854 c 3.399,4.565 4.811,8.856 4.927,14.547 -1.912,1.967 -3.957,4.804 -6.094,6.414 l -3.403,1.575 c 0.71,-3.406 4.854,-6.405 5.73,-10.263 0.944,-4.16 -2.48,-8.331 -1.16,-12.273 z"
       id="path184-8" />
    <path
       fill="#ca8773"
       d="m 888.51905,763.84154 c 2.056,-2.452 4.163,-4.853 6.58,-6.956 5.84,-5.082 15.584,-12.468 23.648,-11.927 l 1.725,2.228 c -8.41,2.783 -17.579,7.989 -23.487,14.699 -0.549,-0.637 -0.174,-0.315 -1.259,-0.782 -2.598,0.372 -4.858,1.623 -7.207,2.738 z"
       id="path185-9" />
    <path
       fill="url(#gradient_13)"
       d="m 956.70005,742.91954 c 1.714,3.247 5.105,9.906 3.736,13.543 -0.479,1.269 -0.806,1.434 -1.924,2.04 -1.285,-10e-4 -2.312,-0.044 -3.571,-0.357 -0.993,-2.908 -3.35,-5.148 -5.847,-6.826 -7.942,-5.337 -19.505,-5.957 -28.622,-4.133 l -1.725,-2.228 c 17.253,-2.182 25.173,-0.61 40.159,8.051 q -1.203,-5.023 -2.206,-10.09 z"
       id="path186-1"
       style="fill:url(#linearGradient21)" />
    <path
       d="m 920.47205,747.18654 c 9.117,-1.824 20.68,-1.204 28.622,4.133 2.497,1.678 4.854,3.918 5.847,6.826 -15.743,-7.011 -28.203,-9.422 -44.84,-2.935 -2.718,1.06 -11.825,7.136 -12.836,7.167 l -0.28,-0.492 c 5.908,-6.71 15.077,-11.916 23.487,-14.699 z"
       id="path187-8" />
    <path
       fill="url(#gradient_14)"
       d="m 895.92405,777.09254 c 8.798,-3.365 15.998,-8.467 24.353,-12.5 14.084,-6.798 21.851,-1.24 35.083,3.343 3.378,1.169 5.451,1.255 8.672,-0.321 l 3.403,-1.575 c 0.443,2.56 -1.138,7.526 -2.698,9.543 -0.895,1.158 -1.174,1.08 -2.556,1.296 -13.474,1.579 -24.65,-7.002 -37.841,-5.581 l -2.252,0.841 c -5.561,2.529 -10.934,5.123 -16.06,8.477 -8.837,3.718 -16.519,7.782 -26.122,9.426 -1.951,-0.425 -3.699,-1.101 -5.549,-1.845 l -0.095,-0.765 c 5.816,0.727 10.568,-0.336 15.97,-2.387 0.338,-3.612 3.209,-5.624 5.692,-7.952 z"
       id="path188-4"
       style="fill:url(#linearGradient22)" />
    <path
       d="m 890.23205,785.04454 c 12.978,-3.626 21.985,-15.479 34.815,-18.905 11.994,-3.204 21.965,3.52 31.887,9.203 1.9,-0.414 3.678,-1.151 5.647,-1.165 l 0.524,0.637 -0.924,2.064 c -13.474,1.579 -24.65,-7.002 -37.841,-5.581 l -2.252,0.841 c -5.561,2.529 -10.934,5.123 -16.06,8.477 -8.837,3.718 -16.519,7.782 -26.122,9.426 -1.951,-0.425 -3.699,-1.101 -5.549,-1.845 l -0.095,-0.765 c 5.816,0.727 10.568,-0.336 15.97,-2.387 z"
       id="path189-8" />
  </g>
</svg>
